<?xml version="1.0" encoding="UTF-8" standalone="no"?>
<!-- Created with Inkscape (http://www.inkscape.org/) -->

<svg
   xmlns:dc="http://purl.org/dc/elements/1.1/"
   xmlns:cc="http://creativecommons.org/ns#"
   xmlns:rdf="http://www.w3.org/1999/02/22-rdf-syntax-ns#"
   xmlns:svg="http://www.w3.org/2000/svg"
   xmlns="http://www.w3.org/2000/svg"
   xmlns:sodipodi="http://sodipodi.sourceforge.net/DTD/sodipodi-0.dtd"
   xmlns:inkscape="http://www.inkscape.org/namespaces/inkscape"
   width="157mm"
   height="40mm"
   viewBox="0 0 157 40"
   version="1.1"
   id="svg61"
   inkscape:version="0.92.3 (2405546, 2018-03-11)"
   sodipodi:docname="logo.svg">
  <defs
     id="defs55" />
  <sodipodi:namedview
     id="base"
     pagecolor="#ffffff"
     bordercolor="#666666"
     borderopacity="1.0"
     inkscape:pageopacity="0.0"
     inkscape:pageshadow="2"
     inkscape:zoom="1.979899"
     inkscape:cx="460.98978"
     inkscape:cy="-6.2909921"
     inkscape:document-units="mm"
     inkscape:current-layer="layer1"
     showgrid="false"
     inkscape:window-width="1920"
     inkscape:window-height="1015"
     inkscape:window-x="1920"
     inkscape:window-y="0"
     inkscape:window-maximized="1" />
  <metadata
     id="metadata58">
    <rdf:RDF>
      <cc:Work
         rdf:about="">
        <dc:format>image/svg+xml</dc:format>
        <dc:type
           rdf:resource="http://purl.org/dc/dcmitype/StillImage" />
        <dc:title></dc:title>
      </cc:Work>
    </rdf:RDF>
  </metadata>
  <g
     inkscape:label="Layer 1"
     inkscape:groupmode="layer"
     id="layer1"
     transform="translate(0,-257)">
    <g
       transform="matrix(0.35733838,0,0,0.35733838,-204.29145,197.11415)"
       id="g2463"
       inkscape:export-xdpi="300"
       inkscape:export-ydpi="300">
      <path
         inkscape:connector-curvature="0"
         id="path10-2-2-4-1"
         style="fill:#ffffff;fill-rule:evenodd;stroke:#1b1918;stroke-width:0.19597408;stroke-linecap:butt;stroke-linejoin:miter;stroke-dasharray:none"
         d="m 590.9473,180.73926 h 70.70145 l 10.53007,6.39319 9.77784,9.02579 v 59.41933 H 590.9473 Z" />
      <path
         inkscape:connector-curvature="0"
         id="path12-4-6-5-8-2"
         style="fill:#ffffff;fill-rule:evenodd;stroke-width:0.90728736"
         d="M 694.85884,262.51088 H 588.44445 v 14.18834 h 106.41439 z" />
      <path
         inkscape:connector-curvature="0"
         id="path14-9-2-1-7"
         style="fill:#008bd0;fill-rule:evenodd;stroke-width:0.90728736"
         d="m 594.21889,190.12333 0.16513,-0.32998 0.98985,-0.16495 h 19.13804 0.32998 v 4.78467 l 0.16495,2.14456 h 0.32998 l 0.16494,-0.16486 0.16513,-0.16494 0.16485,-0.16513 0.16494,-0.32998 0.16513,-0.16494 0.16486,-0.16486 0.16494,-0.16512 0.16513,-0.16495 0.16485,-0.16485 0.16513,-0.16513 0.16494,-0.16494 0.16486,-0.16486 0.16512,-0.33007 0.16495,-0.16512 0.16485,-0.16495 0.16513,-0.16485 0.16494,-0.16513 0.16513,-0.16494 0.16485,-0.16486 0.16496,-0.16513 0.16511,-0.16494 0.16486,-0.16513 0.16495,-0.16485 0.16512,-0.16495 0.16485,-0.16512 0.16495,-0.16486 0.16513,-0.16494 0.16485,-0.16513 0.16522,-0.16485 0.3297,-0.16495 0.16523,-0.16512 0.16485,-0.16486 0.33007,-0.16512 0.16486,-0.16495 0.16494,-0.16485 0.16513,-0.16513 0.32998,-0.16494 0.3298,-0.16486 0.16512,-0.16512 0.3298,-0.16495 0.33007,-0.16485 0.16485,-0.16513 0.4952,-0.16494 0.3298,-0.16513 0.32998,-0.16485 0.33007,-0.16495 0.49493,-0.16513 0.65978,-0.16485 0.49492,-0.16494 0.82499,-0.16513 1.15498,-0.16485 h 2.96965 l 1.31983,0.16485 0.66005,0.16513 0.65987,0.16494 0.49492,0.16485 0.33007,0.16513 0.49494,0.16495 0.32997,0.16485 0.32998,0.16513 0.3299,0.16494 0.32997,0.16513 0.16512,0.16485 0.32981,0.16495 0.16511,0.16512 0.32982,0.16486 0.1651,0.16494 0.16497,0.16513 0.16485,0.16485 0.16513,0.16495 0.32997,0.16512 0.16495,0.16486 0.16495,0.16512 0.16512,0.16495 0.16486,0.16485 0.16494,0.33007 0.16513,0.16486 0.16485,0.16512 0.16495,0.16495 0.16512,0.16485 0.16486,0.33007 0.16521,0.16513 0.16486,0.3298 0.16484,0.16513 0.16523,0.3298 0.16485,0.33006 0.16494,0.16513 0.16513,0.3298 0.16486,0.32998 0.16494,0.33007 0.16513,0.3298 0.16485,0.32998 0.16513,0.33007 0.16494,0.49493 0.16486,0.32998 0.16512,0.32979 0.16495,0.33007 0.16485,0.32998 h 0.33007 l 0.16513,-0.16485 0.16485,-0.16513 0.16494,-0.16494 0.16513,-0.32998 0.16486,-0.16494 0.16493,-0.16513 0.16514,-0.16485 0.16485,-0.33007 0.16495,-0.16486 0.16512,-0.16494 0.16486,-0.16513 0.16512,-0.16485 0.16495,-0.33007 0.16485,-0.16486 0.16512,-0.16512 0.16495,-0.16495 0.16486,-0.16485 0.16511,-0.16513 0.16497,-0.16494 0.16485,-0.16486 0.16512,-0.16513 0.16495,-0.16494 0.16513,-0.16512 0.16484,-0.16495 0.16496,-0.16485 0.16512,-0.16513 0.16486,-0.16494 0.16494,-0.32999 0.16512,-0.16494 0.3298,-0.16513 0.16513,-0.16485 0.16494,-0.16495 0.16512,-0.16512 0.16487,-0.16486 0.16494,-0.16494 0.16513,-0.16513 0.16485,-0.16485 0.33007,-0.16495 0.16486,-0.16512 0.16512,-0.16486 0.3298,-0.16512 0.16513,-0.16495 0.16494,-0.16485 0.32998,-0.16513 0.16495,-0.16494 0.32998,-0.16486 0.33007,-0.16512 0.16485,-0.16495 0.33007,-0.16485 0.3298,-0.16513 0.32998,-0.16494 0.33007,-0.16513 0.3298,-0.16485 0.49492,-0.16495 0.32998,-0.16513 0.49492,-0.16485 0.66016,-0.16494 0.65978,-0.16513 0.98985,-0.16485 h 4.1248 l 0.98984,0.16485 0.65978,0.16513 0.66014,0.16494 0.32981,0.16485 0.49493,0.16513 0.32998,0.16495 0.33007,0.16485 0.32997,0.16513 0.16495,0.16494 0.32998,0.16513 0.33007,0.16485 0.16486,0.16495 0.16494,0.16512 0.32998,0.16486 0.16495,0.16494 0.16512,0.16513 0.16486,0.16485 0.16494,0.16495 0.16513,0.16512 0.16485,0.16486 0.16513,0.16512 0.16494,0.16495 0.16486,0.16485 0.16513,0.16513 0.16493,0.3298 0.16495,0.16512 0.16504,0.3298 0.16494,0.16513 0.16495,0.16494 0.16503,0.32999 0.16503,0.16494 0.16504,0.32998 0.16486,0.33007 0.16503,0.33007 0.16504,0.3298 0.16494,0.32998 0.16495,0.33007 0.16503,0.49493 0.16495,0.32998 0.16512,0.49493 0.16486,0.49492 0.16494,0.49492 0.16513,0.49492 0.16485,0.65987 0.16495,0.82491 0.16512,0.82499 0.16496,0.98995 0.16485,1.31983 0.16512,2.30977 0.16495,5.27951 0.16503,13.03372 0.16494,14.5185 0.16495,5.27951 0.16503,1.64982 0.16496,0.65995 0.16494,0.49493 0.16503,0.33007 0.16495,0.16495 0.16494,0.16486 0.16503,0.16511 0.16496,0.16495 0.16512,0.16503 0.16495,0.16495 0.32998,0.16495 0.16494,0.16503 0.32998,0.16495 0.3298,0.16494 0.49511,0.16503 0.49492,0.16495 0.65996,0.16495 0.32998,0.16504 0.16494,0.16494 0.16513,2.30977 -26.08206,-1.9e-4 0.17946,-2.30958 0.32998,-0.16494 0.33007,-0.16504 0.49493,-0.16495 0.49492,-0.16495 0.32998,-0.16503 0.32979,-0.16494 0.16514,-0.16495 0.32979,-0.16503 0.16523,-0.16495 0.16485,-0.16495 0.16485,-0.16503 0.16522,-0.16495 0.16486,-0.16511 0.16513,-0.16486 0.16494,-0.33007 0.16485,-0.16495 0.16512,-0.32999 0.16495,-0.49492 0.16486,-0.49493 0.16513,-0.65986 0.16494,-0.99004 0.16485,-2.63956 v -29.36709 l -0.16485,-7.25947 -0.16494,-1.81476 -0.16513,-0.98994 -0.16486,-0.65987 -0.16495,-0.49493 -0.16512,-0.32998 -0.16485,-0.49492 -0.16494,-0.33007 -0.16513,-0.16486 -0.16486,-0.16512 -0.16522,-0.3298 -0.16485,-0.16513 -0.16485,-0.16494 -0.16523,-0.16513 -0.16484,-0.16485 -0.16495,-0.16494 -0.32998,-0.16513 -0.33008,-0.16485 -0.49492,-0.16494 h -2.14455 l -0.4952,0.16494 -0.49492,0.16485 -0.3298,0.16513 -0.32998,0.16494 -0.16495,0.16485 -0.32998,0.16513 -0.33007,0.16494 -0.16485,0.16513 -0.16513,0.16485 -0.16494,0.16495 -0.32999,0.16512 -0.16494,0.16486 -0.16513,0.16494 -0.16494,0.16513 -0.16486,0.16485 -0.16512,0.16513 -0.16494,0.16494 -0.16486,0.16486 -0.16512,0.16512 -0.16496,0.16495 -0.16484,0.16495 -0.16513,0.32997 -0.16495,0.16495 -0.16512,0.16503 -0.16485,0.16495 -0.16497,0.33008 -0.16511,0.16494 -0.16486,0.16503 -0.16495,0.32989 -0.16512,0.16503 -0.16485,0.3299 -0.16495,0.16504 -0.16512,0.33007 -0.16486,0.16485 -0.16512,0.33007 -0.16495,0.16486 -0.16485,0.33007 -0.16514,0.32998 -0.16493,0.16494 -0.16486,0.32998 v 5.93947 l 0.16486,22.6027 0.16493,9.56898 0.16514,1.48487 0.16485,0.65996 0.16495,0.49492 0.16512,0.33007 0.16486,0.32981 0.16512,0.33007 0.16495,0.16486 0.16485,0.16511 0.16512,0.16495 0.16495,0.16503 0.16486,0.16495 0.16511,0.16495 0.32982,0.16503 0.16512,0.16495 0.33008,0.16494 0.49492,0.16503 0.49492,0.16495 0.49493,0.16495 0.49493,0.16504 0.49492,0.16494 v 2.14491 l -3.79456,0.16486 h -20.12807 -2.14483 v -0.8248 -0.99005 -0.49492 h 0.32999 l 0.33007,-0.16494 0.65978,-0.16504 0.49492,-0.16495 0.33007,-0.16495 0.32998,-0.16503 0.3298,-0.16494 0.16513,-0.16495 0.16494,-0.16503 0.16513,-0.16495 0.16485,-0.16495 0.16494,-0.16503 0.16513,-0.16495 0.16486,-0.16511 0.16494,-0.16486 0.16513,-0.33007 0.16485,-0.32981 0.16504,-0.33007 0.16503,-0.49492 0.16495,-0.49493 0.16513,-1.97988 v -33.16163 l -0.16513,-6.59942 -0.16495,-1.48477 -0.16503,-0.66006 -0.16504,-0.49492 -0.16485,-0.49502 -0.16513,-0.3298 -0.16494,-0.32998 -0.16486,-0.16513 -0.16513,-0.3298 -0.16494,-0.16512 -0.16485,-0.16495 -0.16513,-0.16485 -0.16494,-0.16513 -0.16513,-0.16494 -0.16485,-0.16513 -0.16495,-0.16485 -0.16512,-0.16494 -0.3298,-0.16513 -0.16513,-0.16485 -0.49492,-0.16494 h -2.30968 l -0.49493,0.16494 -0.49492,0.16485 -0.33007,0.16513 -0.33007,0.16494 -0.16486,0.16485 -0.33008,0.16513 -0.16484,0.16494 -0.33008,0.16513 -0.16485,0.16485 -0.16513,0.16495 -0.16495,0.16512 -0.16485,0.16486 -0.16512,0.16494 -0.16495,0.16513 -0.16486,0.16485 -0.16511,0.16513 -0.16496,0.16494 -0.16485,0.16486 -0.16513,0.16512 -0.16494,0.3299 -0.16513,0.16503 -0.16485,0.16494 -0.16495,0.16495 -0.16512,0.32998 -0.16486,0.16512 -0.16494,0.16496 -0.16513,0.32997 -0.16485,0.16495 -0.16513,0.32997 -0.16494,0.16496 -0.16486,0.32998 -0.16513,0.16494 -0.16494,0.32998 -0.16485,0.33007 -0.16513,0.16486 -0.16494,0.33007 -0.16486,0.32998 -0.16512,0.32988 -0.16495,0.16504 v 3.62969 l 0.16495,24.08749 0.16512,9.56898 0.16486,2.14491 0.16494,0.65988 0.16513,0.4951 0.16485,0.49492 0.16494,0.49493 0.16513,0.16495 0.16486,0.32997 0.16494,0.16495 0.16513,0.16503 0.16485,0.16495 0.16513,0.16495 0.16494,0.16503 0.32998,0.16495 0.3298,0.16494 0.33007,0.16503 0.49494,0.16495 0.49492,0.16495 0.66005,0.16504 0.16485,0.16494 0.16522,0.33007 0.16486,2.14482 h -25.90233 v -0.32998 l -0.16513,-0.82499 v -0.16486 l 0.16513,-0.98993 0.16494,-0.16513 0.49492,-0.16494 0.49493,-0.16504 0.49492,-0.16495 0.49493,-0.16495 0.32998,-0.16503 0.33007,-0.16494 0.16486,-0.16495 0.33006,-0.16503 0.16486,-0.16495 0.16521,-0.16495 0.16486,-0.16503 0.16485,-0.16495 0.16522,-0.16511 0.16485,-0.32981 0.16504,-0.33007 0.16503,-0.32999 0.16486,-0.65986 0.16513,-0.98985 0.16495,-1.97997 v -37.61614 l -0.16495,-6.59943 -0.16513,-1.64971 -0.16486,-0.66005 -0.16503,-0.32998 -0.16504,-0.49493 -0.16485,-0.16494 -0.16522,-0.32999 -0.16485,-0.16494 -0.16486,-0.16512 -0.16521,-0.16495 -0.16486,-0.16485 -0.16494,-0.16513 -0.32998,-0.16494 -0.33007,-0.16486 -0.32998,-0.16513 -0.49493,-0.16494 -0.32988,-0.16513 -0.82491,-0.16485 -0.32998,-0.16495 -0.16494,-0.16512 -0.16513,-0.16486 z m -4.9497,-19.3029 h 56.09521 l 1.48432,0.16495 1.48478,0.16485 0.98994,0.16495 0.99003,0.16512 0.82473,0.16495 0.82499,0.16513 0.66005,0.16485 0.82472,0.16494 0.66006,0.16513 0.49492,0.16485 0.65977,0.16495 0.49493,0.16513 0.49493,0.16485 0.66015,0.16513 0.49492,0.16494 0.32999,0.16486 0.49492,0.16512 0.49493,0.16494 0.49492,0.16486 0.49492,0.16512 0.33007,0.16495 0.32999,0.16485 0.49492,0.16513 0.3298,0.16494 0.33007,0.16513 0.49492,0.16485 0.32999,0.16495 0.33006,0.16512 0.3298,0.16486 0.32998,0.16494 0.33007,0.16513 0.33007,0.16485 0.32981,0.16495 0.32997,0.16512 0.33008,0.16486 0.32998,0.16512 0.3298,0.16495 0.16512,0.16485 0.32981,0.16513 0.33007,0.16495 0.32998,0.16485 0.16494,0.16513 0.32998,0.16494 0.33007,0.16485 0.16486,0.16513 0.33007,0.16495 0.16485,0.16512 0.33007,0.16495 0.16486,0.16485 0.33006,0.16513 0.32999,0.16494 0.16494,0.16486 0.32998,0.16512 0.16503,0.16495 0.3299,0.16512 0.16503,0.16486 0.16504,0.16494 0.32989,0.16513 0.16503,0.16485 0.16495,0.16495 0.32998,0.16512 0.16494,0.16486 0.16513,0.16494 0.3298,0.16513 0.16512,0.16485 0.16496,0.16513 0.16485,0.16494 0.33007,0.16486 0.16503,0.16513 0.16494,0.16494 0.16495,0.16485 0.16503,0.16513 0.3299,0.16495 0.16503,0.16485 0.16495,0.16513 0.16494,0.16494 0.16503,0.16513 0.16496,0.16485 0.33007,0.16495 0.16485,0.16485 0.16513,0.16513 0.16494,0.16494 0.16486,0.16513 0.16512,0.16485 0.16495,0.16513 0.16485,0.16494 0.16522,0.16486 0.16485,0.16494 0.16504,0.16513 0.16503,0.16485 0.16485,0.16494 0.16504,0.16513 0.16503,0.16485 0.16486,0.16522 0.16513,0.16485 0.16494,0.16486 0.16504,0.16521 0.16494,0.16486 0.16494,0.16494 0.16513,0.16513 0.16486,0.16485 0.16494,0.16513 0.16513,0.16495 0.16485,0.16485 0.16494,0.33007 0.16513,0.16485 0.16486,0.16513 0.16512,0.16495 0.16495,0.16485 0.16485,0.16513 0.16513,0.33007 0.16494,0.16485 0.16485,0.16495 0.16513,0.16512 0.16494,0.16486 0.16486,0.33007 0.16513,0.16485 0.16495,0.16495 0.16512,0.16512 0.16485,0.32998 0.16495,0.16495 0.16512,0.16485 0.16486,0.33007 0.16495,0.16486 0.16513,0.16512 0.16484,0.3298 0.16495,0.16513 0.16513,0.16494 0.16486,0.32999 0.16521,0.16494 0.16486,0.32998 0.16494,0.16495 0.16512,0.33006 0.16486,0.16513 0.16494,0.3298 0.16513,0.16513 0.16485,0.16485 0.16513,0.33007 0.16494,0.16486 0.16486,0.33007 0.16513,0.32998 0.16494,0.16494 0.16485,0.32999 0.16513,0.32979 0.16494,0.16513 0.16486,0.32979 0.16513,0.33007 0.16494,0.32998 0.16513,0.33007 0.16485,0.16486 0.16494,0.33007 0.16513,0.32998 0.16486,0.3298 0.16494,0.33007 0.16512,0.32998 0.16486,0.32989 0.16494,0.32998 0.16513,0.33008 0.16485,0.32997 0.16513,0.32989 0.16494,0.32999 0.16486,0.32998 0.16513,0.33007 0.16494,0.3298 0.16485,0.32998 0.16513,0.49501 0.16494,0.32998 0.16513,0.32998 0.16486,0.49493 0.16494,0.32988 0.16513,0.49511 0.16485,0.49493 0.16494,0.32988 0.16513,0.49494 0.16495,0.49501 0.16486,0.49501 0.16511,0.49493 0.16496,0.49492 0.16512,0.49493 0.16485,0.65987 0.16495,0.4951 0.16513,0.65988 0.16485,0.49492 0.16495,0.66006 0.16485,0.65978 0.16513,0.66013 0.16494,0.82473 0.16513,0.8249 0.16485,0.825 0.16513,0.82491 0.16494,0.98984 0.16486,1.15498 0.16494,1.1548 0.16513,1.31992 0.16485,2.47481 0.16513,18.31305 v 17.65327 H 588.44445 l -0.16494,-58.23922 v -29.53192 l 0.16494,-1.81485 z" />
      <path
         inkscape:connector-curvature="0"
         id="path16-1-4-2-0"
         style="fill:#ffffff;fill-rule:evenodd;stroke-width:0.90728736"
         d="m 572.44108,260.5712 h 13.19868 v -89.42106 h -13.19868 z" />
      <path
         inkscape:connector-curvature="0"
         id="path18-0-4-9-9"
         style="fill:#008bd0;fill-rule:evenodd;stroke-width:0.90728736"
         d="m 585.96974,276.69932 v -14.18853 h -14.02358 v 14.18853 z" />
      <path
         inkscape:connector-curvature="0"
         id="path20-4-3-3-3"
         style="fill:#000000;fill-rule:evenodd;stroke-width:0.90728736"
         d="m 625.69359,264.90675 v 3.11291 h -0.25794 c -0.19443,-0.81229 -0.55643,-1.43433 -1.08819,-1.86874 -0.52932,-0.43197 -1.13094,-0.64926 -1.80278,-0.64926 -0.56108,0 -1.07451,0.16087 -1.54276,0.48413 -0.46834,0.32354 -0.81202,0.74416 -1.02687,1.26675 -0.27845,0.66732 -0.41853,1.40938 -0.41853,2.22595 0,0.80313 0.10162,1.53604 0.30521,2.19662 0.2036,0.66051 0.52015,1.16052 0.95456,1.49757 0.43223,0.33942 0.9933,0.50673 1.6832,0.50673 0.5656,0 1.08357,-0.12213 1.554,-0.3709 0.47043,-0.2467 0.96581,-0.67185 1.4884,-1.2781 v 0.77591 c -0.50426,0.52478 -1.02931,0.90693 -1.5745,1.14228 -0.54727,0.23753 -1.18283,0.35502 -1.91365,0.35502 -0.95691,0 -1.80977,-0.19234 -2.55402,-0.57658 -0.74424,-0.38469 -1.31865,-0.9366 -1.72375,-1.65607 -0.40266,-0.72157 -0.60626,-1.48841 -0.60626,-2.30071 0,-0.8571 0.22411,-1.66939 0.67431,-2.43832 0.44783,-0.76921 1.0519,-1.36629 1.81411,-1.78935 0.76221,-0.42525 1.57206,-0.63584 2.42954,-0.63584 0.63129,0 1.29851,0.13582 2.00211,0.40965 0.40692,0.15841 0.66486,0.23961 0.77573,0.23961 0.14036,0 0.26248,-0.0519 0.36654,-0.15605 0.10417,-0.10407 0.17185,-0.26919 0.2036,-0.49321 z m 4.45397,4.87059 v 2.78238 c 0,0.45909 0.0248,0.74634 0.0745,0.86175 0.0522,0.11541 0.1517,0.21484 0.29886,0.30094 0.14925,0.0882 0.34831,0.13128 0.59917,0.13128 h 0.29886 v 0.24416 h -4.69848 v -0.24416 h 0.2986 c 0.26002,0 0.47033,-0.0476 0.62883,-0.14044 0.11532,-0.061 0.2036,-0.1673 0.26466,-0.31901 0.0497,-0.10406 0.0747,-0.38215 0.0747,-0.83452 v -5.91098 c 0,-0.45935 -0.025,-0.74659 -0.0747,-0.862 -0.0473,-0.11541 -0.14716,-0.21485 -0.29396,-0.30068 -0.14716,-0.0861 -0.34831,-0.1291 -0.59953,-0.1291 h -0.2986 v -0.24661 h 4.69848 v 0.24661 h -0.29886 c -0.26003,0 -0.47034,0.0452 -0.62875,0.13799 -0.1154,0.0635 -0.20577,0.16758 -0.27146,0.319 -0.0497,0.10625 -0.0724,0.3846 -0.0724,0.83479 v 2.54494 h 3.17369 v -2.54494 c 0,-0.45935 -0.0247,-0.74659 -0.0723,-0.862 -0.0497,-0.11541 -0.14925,-0.21485 -0.29849,-0.30068 -0.15179,-0.0861 -0.35076,-0.1291 -0.60417,-0.1291 h -0.29177 v -0.24661 h 4.69385 v 0.24661 h -0.29179 c -0.26466,0 -0.47496,0.0452 -0.63102,0.13799 -0.11323,0.0635 -0.2036,0.16758 -0.27164,0.319 -0.0472,0.10625 -0.0723,0.3846 -0.0723,0.83479 v 5.91098 c 0,0.45909 0.025,0.74634 0.0723,0.86175 0.0497,0.11541 0.14961,0.21484 0.29886,0.30094 0.15143,0.0882 0.35039,0.13128 0.6038,0.13128 h 0.29179 v 0.24416 h -4.69385 v -0.24416 h 0.29177 c 0.26466,0 0.47498,-0.0476 0.6313,-0.14044 0.11296,-0.061 0.20359,-0.1673 0.27136,-0.31901 0.0476,-0.10406 0.0723,-0.38215 0.0723,-0.83452 v -2.78238 z m 12.49163,1.76223 h -3.17379 l -0.37788,0.87517 c -0.12421,0.29178 -0.18528,0.53176 -0.18528,0.72156 0,0.2534 0.10161,0.43895 0.30522,0.55653 0.11758,0.0726 0.41181,0.12448 0.88006,0.16086 v 0.24416 h -2.98841 v -0.24416 c 0.32144,-0.0498 0.58818,-0.18345 0.79396,-0.40265 0.20813,-0.21729 0.46608,-0.66975 0.7692,-1.35503 l 3.21461,-7.17101 h 0.12674 l 3.2393,7.37007 c 0.30983,0.69897 0.56324,1.13764 0.76221,1.31865 0.15178,0.138 0.36418,0.21738 0.638,0.23997 v 0.24416 h -4.34772 v -0.24416 h 0.17855 c 0.34831,0 0.59499,-0.0498 0.73535,-0.14716 0.0971,-0.0702 0.1469,-0.17183 0.1469,-0.30521 0,-0.0794 -0.0134,-0.16086 -0.0407,-0.24451 -0.009,-0.0407 -0.0747,-0.20577 -0.19897,-0.49755 z m -0.22628,-0.49121 -1.33699,-3.0943 -1.3797,3.0943 z m 13.44155,-6.14161 v 3.11291 h -0.25795 c -0.19443,-0.81229 -0.55643,-1.43433 -1.08819,-1.86874 -0.52931,-0.43197 -1.13103,-0.64926 -1.80288,-0.64926 -0.56106,0 -1.0745,0.16087 -1.54275,0.48413 -0.46825,0.32354 -0.81193,0.74416 -1.02687,1.26675 -0.27835,0.66732 -0.41844,1.40938 -0.41844,2.22595 0,0.80313 0.10162,1.53604 0.30521,2.19662 0.20359,0.66051 0.52016,1.16052 0.95456,1.49757 0.43223,0.33942 0.9933,0.50673 1.68311,0.50673 0.56569,0 1.08366,-0.12213 1.55409,-0.3709 0.47034,-0.2467 0.96581,-0.67185 1.4884,-1.2781 v 0.77591 c -0.50426,0.52478 -1.02932,0.90693 -1.5745,1.14228 -0.54727,0.23753 -1.18283,0.35502 -1.91365,0.35502 -0.95691,0 -1.80986,-0.19234 -2.55401,-0.57658 -0.74425,-0.38469 -1.31875,-0.9366 -1.72376,-1.65607 -0.40266,-0.72157 -0.60624,-1.48841 -0.60624,-2.30071 0,-0.8571 0.224,-1.66939 0.67429,-2.43832 0.44783,-0.76921 1.05191,-1.36629 1.81412,-1.78935 0.76222,-0.42525 1.57205,-0.63584 2.42954,-0.63584 0.6312,0 1.2985,0.13582 2.00211,0.40965 0.40692,0.15841 0.66485,0.23961 0.77563,0.23961 0.14046,0 0.26257,-0.0519 0.36663,-0.15605 0.10408,-0.10407 0.17185,-0.26919 0.2036,-0.49321 z m 5.98329,0.0793 c 1.4316,-0.0544 2.59466,0.3642 3.49023,1.25097 0.89351,0.88887 1.34161,1.99967 1.34161,3.33428 0,1.1401 -0.3327,2.14228 -1.00001,3.00857 -0.88433,1.14926 -2.13313,1.72375 -3.74609,1.72375 -1.61507,0 -2.86603,-0.54727 -3.75064,-1.64436 -0.69662,-0.86637 -1.04728,-1.89352 -1.04728,-3.08125 0,-1.33462 0.45482,-2.4475 1.36174,-3.33645 0.90929,-0.89131 2.02471,-1.30986 3.35044,-1.25551 z m 0.0812,0.42307 c -0.82328,0 -1.44785,0.4207 -1.87764,1.25985 -0.3483,0.68773 -0.52232,1.67858 -0.52232,2.96793 0,1.53395 0.26892,2.66697 0.80739,3.39997 0.37553,0.5137 0.90267,0.7692 1.57914,0.7692 0.45445,0 0.83452,-0.11079 1.14009,-0.33026 0.38678,-0.28271 0.68991,-0.73508 0.90693,-1.35721 0.2173,-0.61995 0.32599,-1.4298 0.32599,-2.42736 0,-1.1899 -0.11078,-2.07877 -0.3327,-2.66697 -0.22166,-0.59037 -0.50219,-1.00673 -0.84587,-1.25097 -0.34159,-0.24206 -0.73535,-0.36418 -1.18101,-0.36418 z" />
      <g
         transform="matrix(0.90728735,0,0,0.90728735,498.31615,-64.240375)"
         style="fill:#ffffff"
         id="Layer1001-2-8-9-6">
        <path
           inkscape:connector-curvature="0"
           id="path22-7-6-0-0"
           style="fill:#ffffff;fill-rule:evenodd"
           d="m 248.1738,267.3193 v 8.5547 h -0.7089 c -0.5347,-2.2318 -1.5293,-3.9416 -2.9903,-5.1353 -1.4548,-1.1874 -3.1085,-1.7841 -4.955,-1.7841 -1.542,0 -2.9531,0.4413 -4.24,1.3303 -1.287,0.8889 -2.232,2.0455 -2.8228,3.4815 -0.7645,1.834 -1.15,3.8733 -1.15,6.1177 0,2.2071 0.2798,4.2214 0.8393,6.0367 0.5596,1.8156 1.4298,3.1895 2.6235,4.1159 1.1874,0.9323 2.7295,1.3924 4.6256,1.3924 1.5542,0 2.9781,-0.3357 4.2712,-1.0194 1.2932,-0.6777 2.6547,-1.8465 4.0907,-3.5127 v 2.1325 c -1.3864,1.4423 -2.8287,2.4928 -4.3271,3.1394 -1.5046,0.6528 -3.2516,0.9763 -5.2597,0.9763 -2.6297,0 -4.9736,-0.5284 -7.0191,-1.5855 -2.0452,-1.0567 -3.6244,-2.5738 -4.7373,-4.551 -1.1066,-1.9831 -1.6662,-4.0907 -1.6662,-6.3227 0,-2.3561 0.6154,-4.5881 1.8527,-6.7019 1.2311,-2.1138 2.8908,-3.7551 4.9862,-4.9178 2.0951,-1.1688 4.3208,-1.747 6.677,-1.747 1.7345,0 3.5688,0.373 5.5023,1.1253 1.1189,0.4351 1.8278,0.6591 2.1322,0.6591 0.3856,0 0.7215,-0.1432 1.0072,-0.4289 0.286,-0.286 0.4725,-0.7398 0.5596,-1.3555 z m 16.4443,0.2177 c 3.9354,-0.1491 7.1309,1.0009 9.5928,3.4381 2.4559,2.4432 3.6867,5.4958 3.6867,9.1639 0,3.1334 -0.9139,5.8875 -2.7479,8.2686 -2.4307,3.1584 -5.8626,4.7376 -10.2954,4.7376 -4.4391,0 -7.8769,-1.5047 -10.3079,-4.5199 -1.9148,-2.3811 -2.8786,-5.2038 -2.8786,-8.4676 0,-3.6681 1.2498,-6.7269 3.7428,-9.1704 2.4991,-2.4494 5.5642,-3.5994 9.2075,-3.4503 z m 0.2237,1.1625 c -2.2629,0 -3.979,1.1565 -5.1602,3.4631 -0.9573,1.8898 -1.436,4.6131 -1.436,8.1566 0,4.2152 0.7398,7.3302 2.2195,9.3445 1.0318,1.411 2.4806,2.1137 4.3396,2.1137 1.2495,0 2.294,-0.3047 3.1334,-0.9076 1.063,-0.7773 1.8961,-2.0205 2.4928,-3.7304 0.5969,-1.7033 0.8954,-3.9291 0.8954,-6.6711 0,-3.27 -0.3047,-5.7132 -0.9139,-7.3298 -0.6094,-1.6225 -1.3801,-2.7666 -2.3252,-3.4381 -0.9389,-0.665 -2.0206,-1.0009 -3.2454,-1.0009 z m 32.161,15.4618 6.7082,-16.2825 h 10.0531 v 0.6778 h -0.8019 c -0.7274,0 -1.3119,0.1242 -1.747,0.3793 -0.3047,0.174 -0.5471,0.46 -0.7336,0.8577 -0.1307,0.2923 -0.199,1.0508 -0.199,2.2757 v 16.2825 c 0,1.262 0.0683,2.0517 0.199,2.3686 0.1366,0.3172 0.4101,0.5907 0.8206,0.8269 0.4164,0.2426 0.9635,0.3605 1.66,0.3605 h 0.8019 v 0.6716 h -12.9005 v -0.6716 h 0.8019 c 0.7336,0 1.3119,-0.1304 1.7533,-0.3855 0.2985,-0.1678 0.5471,-0.46 0.7273,-0.8764 0.1307,-0.2861 0.199,-1.0508 0.199,-2.2941 v -18.303 l -9.4685,22.5306 h -0.4414 l -9.6179,-22.3691 v 17.3954 c 0,1.2124 0.0311,1.9647 0.0932,2.2445 0.1556,0.6029 0.5037,1.1004 1.0321,1.4797 0.5284,0.3852 1.3553,0.5779 2.4868,0.5779 v 0.6716 h -8.4551 v -0.6716 h 0.2548 c 0.5471,0.0125 1.057,-0.0807 1.5296,-0.2673 0.4722,-0.1865 0.8328,-0.4413 1.0754,-0.7523 0.2424,-0.3169 0.4289,-0.7645 0.5658,-1.3303 0.0247,-0.1369 0.0372,-0.7523 0.0372,-1.8589 v -15.6297 c 0,-1.2498 -0.0683,-2.0268 -0.199,-2.3377 -0.1367,-0.311 -0.4102,-0.5845 -0.8207,-0.8207 -0.4164,-0.2361 -0.9697,-0.3543 -1.6599,-0.3543 h -0.7832 v -0.6778 h 10.0902 z m 31.0918,7.7465 v 0.6716 h -12.9129 v -0.6716 h 0.8206 c 0.7149,0 1.2932,-0.1304 1.7283,-0.3855 0.3172,-0.1678 0.5596,-0.46 0.7274,-0.8764 0.1369,-0.2861 0.2052,-1.0508 0.2052,-2.2941 v -16.2454 c 0,-1.262 -0.0683,-2.0514 -0.2052,-2.3686 -0.1304,-0.3172 -0.3977,-0.5907 -0.8082,-0.8269 -0.4042,-0.2361 -0.9575,-0.3543 -1.6475,-0.3543 h -0.8206 v -0.6778 h 12.9129 v 0.6778 h -0.8206 c -0.7152,0 -1.2931,0.1242 -1.7286,0.3793 -0.3169,0.174 -0.5655,0.46 -0.746,0.8764 -0.1304,0.2923 -0.1987,1.0571 -0.1987,2.2941 v 16.2454 c 0,1.262 0.0683,2.0517 0.2049,2.3686 0.1432,0.3172 0.4167,0.5907 0.8206,0.8269 0.4105,0.2426 0.9576,0.3605 1.6478,0.3605 z m 18.3776,-24.5885 0.2052,8.2315 h -0.7523 c -0.3481,-2.0642 -1.2123,-3.7242 -2.5925,-4.9861 -1.3802,-1.2558 -2.8661,-1.8839 -4.4703,-1.8839 -1.237,0 -2.2192,0.3296 -2.9406,0.9949 -0.7274,0.6591 -1.088,1.4236 -1.088,2.2879 0,0.5408 0.1307,1.0321 0.3855,1.4547 0.3481,0.572 0.9139,1.1378 1.6912,1.6911 0.5717,0.404 1.8899,1.1129 3.954,2.1326 2.8908,1.4235 4.8368,2.7663 5.8439,4.0286 1.001,1.2619 1.4984,2.7042 1.4984,4.3333 0,2.0639 -0.8081,3.8421 -2.4122,5.328 -1.6101,1.4859 -3.6556,2.232 -6.13,2.232 -0.7772,0 -1.5171,-0.0808 -2.207,-0.2364 -0.6903,-0.1616 -1.5605,-0.4601 -2.6051,-0.8952 -0.5845,-0.2424 -1.0632,-0.3606 -1.436,-0.3606 -0.3172,0 -0.6528,0.1182 -1.0012,0.3606 -0.3543,0.2423 -0.6403,0.6154 -0.8578,1.1129 h -0.6715 v -9.3257 h 0.6715 c 0.5347,2.6237 1.5605,4.6193 3.0898,5.9995 1.5234,1.3802 3.1646,2.0701 4.9241,2.0701 1.3615,0 2.4432,-0.3727 3.2513,-1.1126 0.8085,-0.7398 1.2124,-1.6041 1.2124,-2.5863 0,-0.5845 -0.1553,-1.1503 -0.4663,-1.6974 -0.3107,-0.5408 -0.777,-1.063 -1.4111,-1.5542 -0.6341,-0.4913 -1.747,-1.1316 -3.3511,-1.9211 -2.2445,-1.1066 -3.8608,-2.0454 -4.843,-2.8227 -0.9887,-0.777 -1.741,-1.6475 -2.2694,-2.6048 -0.5284,-0.9575 -0.7957,-2.0143 -0.7957,-3.1708 0,-1.9647 0.7274,-3.6431 2.1696,-5.0295 1.4488,-1.3802 3.2704,-2.0704 5.4649,-2.0704 0.802,0 1.5792,0.0932 2.3315,0.286 0.5718,0.1494 1.2683,0.4167 2.0827,0.8144 0.8206,0.3917 1.3989,0.5907 1.722,0.5907 0.3172,0 0.5658,-0.0995 0.7461,-0.2922 0.1865,-0.1928 0.3543,-0.6591 0.5099,-1.3989 z m 16.8857,24.5885 v 0.6716 H 350.445 v -0.6716 h 0.8206 c 0.7149,0 1.2932,-0.1304 1.7283,-0.3855 0.3172,-0.1678 0.5595,-0.46 0.7274,-0.8764 0.1369,-0.2861 0.2052,-1.0508 0.2052,-2.2941 v -16.2454 c 0,-1.262 -0.0683,-2.0514 -0.2052,-2.3686 -0.1304,-0.3172 -0.3977,-0.5907 -0.8082,-0.8269 -0.4042,-0.2361 -0.9575,-0.3543 -1.6475,-0.3543 h -0.8206 v -0.6778 h 12.9129 v 0.6778 h -0.8206 c -0.7152,0 -1.2932,0.1242 -1.7286,0.3793 -0.3169,0.174 -0.5655,0.46 -0.7461,0.8764 -0.1303,0.2923 -0.1987,1.0571 -0.1987,2.2941 v 16.2454 c 0,1.262 0.0684,2.0517 0.205,2.3686 0.1431,0.3172 0.4167,0.5907 0.8206,0.8269 0.4105,0.2426 0.9576,0.3605 1.6478,0.3605 z m 15.2629,-24.3708 c 3.9353,-0.1491 7.1308,1.0009 9.5927,3.4381 2.4559,2.4432 3.6868,5.4958 3.6868,9.1639 0,3.1334 -0.9139,5.8875 -2.748,8.2686 -2.4307,3.1584 -5.8626,4.7376 -10.2954,4.7376 -4.439,0 -7.8769,-1.5047 -10.3079,-4.5199 -1.9148,-2.3811 -2.8786,-5.2038 -2.8786,-8.4676 0,-3.6681 1.2498,-6.7269 3.7429,-9.1704 2.499,-2.4494 5.5641,-3.5994 9.2075,-3.4503 z m 0.2236,1.1625 c -2.2629,0 -3.979,1.1565 -5.1601,3.4631 -0.9573,1.8898 -1.4361,4.6131 -1.4361,8.1566 0,4.2152 0.7399,7.3302 2.2195,9.3445 1.0319,1.411 2.4806,2.1137 4.3396,2.1137 1.2495,0 2.2941,-0.3047 3.1334,-0.9076 1.063,-0.7773 1.8961,-2.0205 2.4928,-3.7304 0.597,-1.7033 0.8955,-3.9291 0.8955,-6.6711 0,-3.27 -0.3047,-5.7132 -0.9139,-7.3298 -0.6095,-1.6225 -1.3802,-2.7666 -2.3253,-3.4381 -0.9388,-0.665 -2.0205,-1.0009 -3.2454,-1.0009 z m 5.4462,-9.2509 -6.0304,6.3164 h -1.5667 l 2.1138,-6.3164 z m 18.2285,8.4302 12.1856,15.319 V 272.579 c 0,-1.4797 -0.2115,-2.4806 -0.6341,-3.0028 -0.5845,-0.7027 -1.5605,-1.0445 -2.9344,-1.0196 v -0.6778 h 8.1567 v 0.6778 c -1.0446,0.1304 -1.7408,0.3047 -2.1014,0.5159 -0.3605,0.2115 -0.6403,0.5596 -0.8393,1.0383 -0.199,0.4788 -0.2985,1.3057 -0.2985,2.4682 v 20.5662 h -0.6216 L 398.7329,272.579 v 15.7045 c 0,1.4173 0.3234,2.3748 0.9762,2.872 0.6466,0.5037 1.3927,0.7523 2.2255,0.7523 h 0.5845 v 0.6716 h -8.7599 v -0.6716 c 1.3615,-0.0124 2.3066,-0.2922 2.8412,-0.8393 0.5349,-0.5471 0.8022,-1.4734 0.8022,-2.785 v -17.4328 l -0.5287,-0.6591 c -0.5221,-0.6528 -0.9822,-1.0817 -1.3864,-1.2931 -0.3977,-0.2053 -0.976,-0.317 -1.7283,-0.3419 v -0.6778 z M 233.346,322.7071 v 6.8514 c 0,1.3368 0.0808,2.1758 0.2486,2.518 0.1616,0.3481 0.4539,0.6278 0.8703,0.8331 0.4229,0.2049 1.1877,0.3107 2.3065,0.3107 v 0.6715 h -12.5521 v -0.6715 c 1.1438,0 1.9148,-0.1058 2.325,-0.3232 0.4042,-0.2115 0.6903,-0.485 0.8581,-0.8269 0.1615,-0.3421 0.2426,-1.1749 0.2426,-2.5117 v -16.0277 c 0,-1.3365 -0.0811,-2.1759 -0.2426,-2.5242 -0.1678,-0.3481 -0.4539,-0.6217 -0.8703,-0.8269 -0.4104,-0.2112 -1.1815,-0.3107 -2.3128,-0.3107 v -0.6778 h 10.768 c 3.5436,0 6.0866,0.6342 7.6283,1.8964 1.5418,1.262 2.3128,2.8412 2.3128,4.7373 0,1.6041 -0.4975,2.9718 -1.4921,4.1156 -0.9947,1.1378 -2.3687,1.9151 -4.1157,2.3315 -1.1749,0.2923 -3.1708,0.4351 -5.9746,0.4351 z m 0,-12.092 v 10.6747 c 0.404,0.0249 0.7025,0.0371 0.9139,0.0371 1.4797,0 2.6173,-0.4413 3.4195,-1.324 0.8019,-0.8768 1.2061,-2.2445 1.2061,-4.091 0,-1.834 -0.4042,-3.1705 -1.2061,-4.0224 -0.8022,-0.8518 -1.9959,-1.2744 -3.5873,-1.2744 z m 22.6239,12.0175 v 6.9259 c 0,1.3368 0.0811,2.1758 0.2427,2.518 0.1678,0.3481 0.4538,0.6278 0.864,0.8331 0.4167,0.2049 1.1874,0.3107 2.319,0.3107 v 0.6715 h -12.6454 v -0.6715 c 1.1438,0 1.9148,-0.1058 2.325,-0.3232 0.4042,-0.2115 0.6902,-0.485 0.8581,-0.8269 0.1615,-0.3421 0.2423,-1.1749 0.2423,-2.5117 v -16.0277 c 0,-1.3365 -0.0808,-2.1759 -0.2423,-2.5242 -0.1679,-0.3481 -0.4539,-0.6217 -0.8706,-0.8269 -0.4101,-0.2112 -1.1812,-0.3107 -2.3125,-0.3107 v -0.6778 h 11.4767 c 2.9902,0 5.1726,0.2115 6.5591,0.6217 1.3801,0.4104 2.5114,1.1752 3.3882,2.2881 0.8702,1.1067 1.3119,2.412 1.3119,3.9042 0,1.8215 -0.6591,3.3261 -1.971,4.5198 -0.8393,0.7523 -2.008,1.3181 -3.5126,1.6912 l 5.9374,8.3619 c 0.777,1.0817 1.3303,1.7532 1.6537,2.0205 0.5035,0.3793 1.0755,0.5845 1.7346,0.6217 v 0.6715 h -7.7777 l -7.9577,-11.2592 z m 0,-12.1108 v 10.8176 h 1.0384 c 1.6849,0 2.9468,-0.1491 3.7862,-0.4601 0.8393,-0.3106 1.4984,-0.8702 1.9772,-1.6784 0.4784,-0.8084 0.7211,-1.8589 0.7211,-3.1583 0,-1.8839 -0.4414,-3.2703 -1.3244,-4.1718 -0.8764,-0.9014 -2.294,-1.349 -4.2525,-1.349 z m 31.434,-1.6724 c 3.9353,-0.1491 7.1308,1.0009 9.5927,3.4381 2.4559,2.4432 3.6867,5.4958 3.6867,9.1639 0,3.1334 -0.9139,5.8875 -2.7479,8.2686 -2.4307,3.1584 -5.8626,4.7376 -10.2954,4.7376 -4.4391,0 -7.8769,-1.5047 -10.3079,-4.5199 -1.9148,-2.3811 -2.8786,-5.2038 -2.8786,-8.4676 0,-3.6681 1.2498,-6.7269 3.7429,-9.1704 2.499,-2.4494 5.5641,-3.5994 9.2075,-3.4503 z m 0.2236,1.1625 c -2.2629,0 -3.979,1.1565 -5.1602,3.4631 -0.9572,1.8898 -1.436,4.6131 -1.436,8.1567 0,4.2151 0.7398,7.3301 2.2195,9.3444 1.0318,1.411 2.4806,2.1138 4.3396,2.1138 1.2495,0 2.2941,-0.3048 3.1334,-0.9077 1.063,-0.7773 1.8961,-2.0205 2.4928,-3.7304 0.597,-1.7033 0.8955,-3.9291 0.8955,-6.671 0,-3.2701 -0.3048,-5.7133 -0.9139,-7.3299 -0.6095,-1.6225 -1.3802,-2.7666 -2.3253,-3.4381 -0.9388,-0.665 -2.0205,-1.0009 -3.2454,-1.0009 z m 40.9397,-0.8207 v 0.6778 c -0.8955,0.1429 -1.6974,0.6216 -2.3998,1.436 -0.51,0.6095 -1.2683,2.033 -2.2757,4.2838 l -8.511,18.8688 h -0.597 l -8.4739,-19.6336 c -1.0196,-2.3687 -1.7033,-3.7613 -2.0452,-4.1718 -0.3483,-0.4164 -1.0012,-0.6775 -1.9584,-0.7832 v -0.6778 h 11.8372 v 0.6778 h -0.3977 c -1.0695,0 -1.7969,0.1304 -2.1887,0.398 -0.2797,0.1803 -0.4164,0.4476 -0.4164,0.8019 0,0.2174 0.0496,0.4788 0.1429,0.777 0.0995,0.2922 0.4292,1.0942 0.9825,2.3936 l 5.2659,12.2913 4.8804,-10.942 c 0.5842,-1.3244 0.9448,-2.2133 1.0755,-2.6609 0.1366,-0.4479 0.199,-0.8331 0.199,-1.1503 0,-0.3606 -0.0933,-0.6837 -0.2923,-0.9635 -0.1927,-0.2798 -0.4788,-0.4913 -0.8518,-0.6344 -0.5221,-0.2112 -1.2186,-0.3107 -2.0764,-0.3107 v -0.6778 z m 14.0445,24.0291 v 0.6715 h -12.9129 v -0.6715 h 0.8206 c 0.7149,0 1.2932,-0.1304 1.7283,-0.3856 0.3172,-0.1678 0.5595,-0.46 0.7274,-0.8764 0.1369,-0.286 0.2052,-1.0508 0.2052,-2.2941 v -16.2454 c 0,-1.2619 -0.0683,-2.0514 -0.2052,-2.3686 -0.1304,-0.3172 -0.3977,-0.5907 -0.8082,-0.8269 -0.4042,-0.2361 -0.9575,-0.3543 -1.6475,-0.3543 h -0.8206 v -0.6778 h 12.9129 v 0.6778 h -0.8206 c -0.7152,0 -1.2932,0.1242 -1.7286,0.3793 -0.3169,0.174 -0.5655,0.46 -0.7461,0.8765 -0.1304,0.2922 -0.1987,1.057 -0.1987,2.294 v 16.2454 c 0,1.262 0.0683,2.0517 0.205,2.3686 0.1431,0.3172 0.4167,0.5908 0.8206,0.8269 0.4105,0.2426 0.9576,0.3606 1.6478,0.3606 z m 10.1461,-24.0291 12.1855,15.319 v -10.6188 c 0,-1.4797 -0.2114,-2.4806 -0.6341,-3.0028 -0.5845,-0.7027 -1.5604,-1.0445 -2.9344,-1.0196 v -0.6778 h 8.1567 v 0.6778 c -1.0446,0.1304 -1.7408,0.3047 -2.1013,0.5159 -0.3606,0.2115 -0.6404,0.5596 -0.8394,1.0383 -0.199,0.4788 -0.2985,1.3057 -0.2985,2.4682 v 20.5662 h -0.6216 l -16.6992,-20.5662 v 15.7045 c 0,1.4173 0.3235,2.3748 0.9763,2.872 0.6466,0.5038 1.3926,0.7524 2.2255,0.7524 h 0.5845 v 0.6715 h -8.7599 v -0.6715 c 1.3614,-0.0125 2.3065,-0.2923 2.8411,-0.8394 0.5349,-0.5471 0.8022,-1.4734 0.8022,-2.785 v -17.4328 l -0.5286,-0.6591 c -0.5222,-0.6528 -0.9822,-1.0817 -1.3865,-1.2931 -0.3977,-0.2053 -0.9759,-0.3169 -1.7282,-0.3419 v -0.6778 z m 42.55,-0.5595 v 8.5547 h -0.709 c -0.5346,-2.2318 -1.5293,-3.9416 -2.9902,-5.1353 -1.4548,-1.1874 -3.1085,-1.7841 -4.955,-1.7841 -1.542,0 -2.9531,0.4413 -4.2401,1.3303 -1.2869,0.8889 -2.232,2.0455 -2.8227,3.4815 -0.7645,1.834 -1.15,3.8733 -1.15,6.1177 0,2.2071 0.2798,4.2214 0.8393,6.0367 0.5596,1.8156 1.4298,3.1895 2.6235,4.1159 1.1874,0.9323 2.7295,1.3924 4.6256,1.3924 1.5542,0 2.978,-0.3356 4.2712,-1.0194 1.2932,-0.6777 2.6547,-1.8464 4.0907,-3.5127 v 2.1326 c -1.3864,1.4422 -2.8287,2.4927 -4.3271,3.1393 -1.5046,0.6528 -3.2516,0.9763 -5.2597,0.9763 -2.6297,0 -4.9737,-0.5284 -7.0191,-1.5854 -2.0452,-1.0568 -3.6244,-2.5739 -4.7373,-4.5511 -1.1066,-1.9831 -1.6662,-4.0906 -1.6662,-6.3226 0,-2.3562 0.6154,-4.5882 1.8527,-6.702 1.2311,-2.1138 2.8908,-3.7551 4.9862,-4.9178 2.0951,-1.1687 4.3208,-1.747 6.677,-1.747 1.7345,0 3.5688,0.373 5.5023,1.1253 1.1188,0.4352 1.8278,0.6591 2.1322,0.6591 0.3855,0 0.7214,-0.1432 1.0072,-0.4289 0.286,-0.286 0.4725,-0.7398 0.5595,-1.3555 z m 15.6982,24.5886 v 0.6715 h -12.9129 v -0.6715 h 0.8206 c 0.7149,0 1.2932,-0.1304 1.7283,-0.3856 0.3172,-0.1678 0.5596,-0.46 0.7274,-0.8764 0.1369,-0.286 0.2052,-1.0508 0.2052,-2.2941 v -16.2454 c 0,-1.2619 -0.0683,-2.0514 -0.2052,-2.3686 -0.1304,-0.3172 -0.3977,-0.5907 -0.8082,-0.8269 -0.4042,-0.2361 -0.9575,-0.3543 -1.6475,-0.3543 h -0.8206 v -0.6778 h 12.9129 v 0.6778 h -0.8206 c -0.7152,0 -1.2931,0.1242 -1.7285,0.3793 -0.317,0.174 -0.5656,0.46 -0.7461,0.8765 -0.1304,0.2922 -0.1987,1.057 -0.1987,2.294 v 16.2454 c 0,1.262 0.0683,2.0517 0.2049,2.3686 0.1432,0.3172 0.4167,0.5908 0.8206,0.8269 0.4105,0.2426 0.9576,0.3606 1.6478,0.3606 z m 16.3758,-6.3601 h -8.7228 l -1.0383,2.406 c -0.3419,0.8022 -0.5097,1.461 -0.5097,1.9834 0,0.6962 0.2798,1.2061 0.8394,1.5293 0.3231,0.199 1.1316,0.3419 2.4185,0.4414 v 0.6715 h -8.2128 v -0.6715 c 0.8827,-0.1367 1.6163,-0.5035 2.1821,-1.1067 0.572,-0.5967 1.2807,-1.8402 2.1138,-3.7239 l 8.8344,-19.7081 h 0.3481 l 8.9031,20.2552 c 0.8518,1.9211 1.548,3.1272 2.0951,3.6244 0.4167,0.3793 1.0009,0.597 1.7529,0.6591 v 0.6715 h -11.9489 v -0.6715 h 0.491 c 0.9575,0 1.6353,-0.1367 2.0208,-0.404 0.2673,-0.1927 0.4039,-0.4725 0.4039,-0.8393 0,-0.2177 -0.0371,-0.4414 -0.1119,-0.6716 -0.0247,-0.1119 -0.205,-0.5657 -0.5471,-1.3677 z m -0.6219,-1.3491 -3.6743,-8.505 -3.7925,8.505 z m 35.5926,-0.2922 -0.9263,8.6729 h -21.9337 v -0.6715 h 0.8207 c 0.7149,0 1.2931,-0.1304 1.7282,-0.3856 0.317,-0.1678 0.5596,-0.46 0.7337,-0.8764 0.1303,-0.286 0.1989,-1.0508 0.1989,-2.2941 v -16.2454 c 0,-1.2619 -0.0686,-2.0514 -0.1989,-2.3686 -0.137,-0.3172 -0.4043,-0.5907 -0.8144,-0.8269 -0.4043,-0.2361 -0.9576,-0.3543 -1.6475,-0.3543 h -0.8207 v -0.6778 h 13.1738 v 0.6778 h -1.0755 c -0.7211,0 -1.2932,0.1242 -1.7345,0.3793 -0.311,0.174 -0.5596,0.46 -0.7461,0.8765 -0.1304,0.2922 -0.199,1.057 -0.199,2.294 v 15.7354 c 0,1.2623 0.0746,2.0705 0.2177,2.4123 0.1491,0.3481 0.4289,0.6095 0.8581,0.7773 0.3044,0.1119 1.038,0.1616 2.2008,0.1616 h 2.0576 c 1.3119,0 2.4061,-0.2299 3.2829,-0.69 0.8702,-0.4601 1.6287,-1.1877 2.2628,-2.1886 0.6404,-0.9947 1.2436,-2.4619 1.8154,-4.4079 z M 233.346,364.0195 v 6.8514 c 0,1.3368 0.0808,2.1758 0.2486,2.518 0.1616,0.3481 0.4539,0.6279 0.8703,0.8331 0.4229,0.2049 1.1877,0.3107 2.3065,0.3107 v 0.6715 h -12.5521 v -0.6715 c 1.1438,0 1.9148,-0.1058 2.325,-0.3232 0.4042,-0.2115 0.6903,-0.485 0.8581,-0.8269 0.1615,-0.3421 0.2426,-1.1749 0.2426,-2.5117 v -16.0277 c 0,-1.3365 -0.0811,-2.1759 -0.2426,-2.5242 -0.1678,-0.3481 -0.4539,-0.6217 -0.8703,-0.8269 -0.4104,-0.2112 -1.1815,-0.3107 -2.3128,-0.3107 v -0.6777 h 10.768 c 3.5436,0 6.0866,0.6341 7.6283,1.8963 1.5418,1.262 2.3128,2.8412 2.3128,4.7373 0,1.6041 -0.4975,2.9718 -1.4921,4.1156 -0.9947,1.1378 -2.3687,1.9151 -4.1157,2.3315 -1.1749,0.2923 -3.1708,0.4351 -5.9746,0.4351 z m 0,-12.092 v 10.6747 c 0.404,0.0249 0.7025,0.0371 0.9139,0.0371 1.4797,0 2.6173,-0.4413 3.4195,-1.324 0.8019,-0.8768 1.2061,-2.2445 1.2061,-4.091 0,-1.834 -0.4042,-3.1705 -1.2061,-4.0223 -0.8022,-0.8519 -1.9959,-1.2745 -3.5873,-1.2745 z m 27.1191,-1.7657 c 3.9353,-0.1491 7.1308,1.0009 9.5927,3.4381 2.456,2.4432 3.6868,5.4958 3.6868,9.1639 0,3.1334 -0.9139,5.8875 -2.7479,8.2686 -2.4307,3.1584 -5.8627,4.7376 -10.2955,4.7376 -4.439,0 -7.8769,-1.5046 -10.3079,-4.5199 -1.9148,-2.3811 -2.8786,-5.2038 -2.8786,-8.4676 0,-3.668 1.2498,-6.7269 3.7429,-9.1704 2.499,-2.4494 5.5641,-3.5994 9.2075,-3.4503 z m 0.2237,1.1625 c -2.2629,0 -3.979,1.1565 -5.1602,3.4631 -0.9573,1.8898 -1.4361,4.6131 -1.4361,8.1567 0,4.2151 0.7399,7.3301 2.2196,9.3444 1.0318,1.4111 2.4806,2.1138 4.3395,2.1138 1.2495,0 2.2941,-0.3048 3.1334,-0.9077 1.063,-0.7772 1.8961,-2.0205 2.4928,-3.7304 0.597,-1.7033 0.8955,-3.9291 0.8955,-6.671 0,-3.2701 -0.3047,-5.7133 -0.9139,-7.3299 -0.6094,-1.6225 -1.3802,-2.7666 -2.3253,-3.4381 -0.9388,-0.665 -2.0205,-1.0009 -3.2453,-1.0009 z m 24.2963,12.6207 v 6.9259 c 0,1.3368 0.081,2.1758 0.2426,2.518 0.1678,0.3481 0.4538,0.6279 0.864,0.8331 0.4167,0.2049 1.1874,0.3107 2.319,0.3107 v 0.6715 h -12.6453 v -0.6715 c 1.1438,0 1.9148,-0.1058 2.325,-0.3232 0.4042,-0.2115 0.6902,-0.485 0.858,-0.8269 0.1616,-0.3421 0.2424,-1.1749 0.2424,-2.5117 v -16.0277 c 0,-1.3365 -0.0808,-2.1759 -0.2424,-2.5242 -0.1678,-0.3481 -0.4538,-0.6217 -0.8705,-0.8269 -0.4102,-0.2112 -1.1812,-0.3107 -2.3125,-0.3107 v -0.6777 h 11.4766 c 2.9903,0 5.1727,0.2114 6.5591,0.6216 1.3802,0.4104 2.5115,1.1752 3.3883,2.2881 0.8702,1.1067 1.3118,2.412 1.3118,3.9042 0,1.8215 -0.659,3.3261 -1.9709,4.5198 -0.8393,0.7523 -2.0081,1.3181 -3.5127,1.6912 l 5.9375,8.3619 c 0.7769,1.0817 1.3303,1.7532 1.6537,2.0205 0.5034,0.3793 1.0755,0.5845 1.7345,0.6217 v 0.6715 h -7.7777 l -7.9577,-11.2592 z m 0,-12.1108 v 10.8176 h 1.0383 c 1.6849,0 2.9469,-0.1491 3.7862,-0.4601 0.8394,-0.3106 1.4984,-0.8702 1.9772,-1.6783 0.4785,-0.8085 0.7211,-1.859 0.7211,-3.1584 0,-1.8839 -0.4413,-3.2703 -1.3243,-4.1718 -0.8765,-0.9014 -2.2941,-1.349 -4.2525,-1.349 z m 49.9048,14.6971 -0.9264,8.6729 h -21.9336 v -0.6715 h 0.8206 c 0.7149,0 1.2932,-0.1304 1.7283,-0.3856 0.3169,-0.1678 0.5595,-0.46 0.7336,-0.8764 0.1304,-0.286 0.199,-1.0508 0.199,-2.2941 v -16.2454 c 0,-1.2619 -0.0686,-2.0514 -0.199,-2.3686 -0.1369,-0.3172 -0.4042,-0.5907 -0.8144,-0.8269 -0.4042,-0.2361 -0.9576,-0.3543 -1.6475,-0.3543 h -0.8206 v -0.6777 h 13.1737 v 0.6777 h -1.0755 c -0.7211,0 -1.2931,0.1242 -1.7345,0.3793 -0.311,0.174 -0.5596,0.4601 -0.7461,0.8765 -0.1304,0.2922 -0.199,1.057 -0.199,2.294 v 15.7354 c 0,1.2623 0.0746,2.0705 0.2177,2.4123 0.1491,0.3481 0.4289,0.6095 0.8581,0.7773 0.3044,0.112 1.038,0.1616 2.2008,0.1616 h 2.0577 c 1.3118,0 2.406,-0.2299 3.2828,-0.69 0.8702,-0.4601 1.6288,-1.1877 2.2629,-2.1886 0.6403,-0.9947 1.2435,-2.4619 1.8153,-4.4079 z m 16.8485,1.6413 h -8.7227 l -1.0384,2.406 c -0.3418,0.8022 -0.5096,1.461 -0.5096,1.9834 0,0.6962 0.2797,1.2062 0.8393,1.5293 0.3231,0.199 1.1316,0.3419 2.4185,0.4414 v 0.6715 h -8.2128 v -0.6715 c 0.8827,-0.1367 1.6163,-0.5035 2.1821,-1.1067 0.572,-0.5967 1.2807,-1.8402 2.1138,-3.7239 l 8.8345,-19.7081 h 0.348 l 8.9031,20.2552 c 0.8518,1.9211 1.548,3.1272 2.0951,3.6244 0.4167,0.3793 1.0009,0.597 1.7532,0.6591 v 0.6715 h -11.9491 v -0.6715 h 0.4909 c 0.9576,0 1.6353,-0.1367 2.0208,-0.404 0.2673,-0.1927 0.404,-0.4725 0.404,-0.8393 0,-0.2177 -0.0372,-0.4414 -0.112,-0.6715 -0.0247,-0.112 -0.2049,-0.5658 -0.5471,-1.3678 z m -0.6219,-1.349 -3.6743,-8.5051 -3.7924,8.5051 z m 37.0851,-0.0375 6.7082,-16.2824 h 10.0531 v 0.6777 h -0.802 c -0.7273,0 -1.3118,0.1242 -1.7469,0.3793 -0.3048,0.174 -0.5471,0.4601 -0.7337,0.8578 -0.1306,0.2922 -0.1989,1.0508 -0.1989,2.2756 v 16.2825 c 0,1.262 0.0683,2.0517 0.1989,2.3686 0.1367,0.3172 0.4102,0.5908 0.8207,0.8269 0.4164,0.2426 0.9635,0.3606 1.6599,0.3606 h 0.802 v 0.6715 h -12.9005 v -0.6715 h 0.8019 c 0.7336,0 1.3119,-0.1304 1.7532,-0.3856 0.2985,-0.1678 0.5471,-0.46 0.7274,-0.8764 0.1307,-0.286 0.199,-1.0508 0.199,-2.2941 v -18.303 l -9.4686,22.5306 h -0.4413 l -9.618,-22.3691 v 17.3954 c 0,1.2124 0.0312,1.9647 0.0933,2.2445 0.1556,0.6029 0.5037,1.1004 1.0321,1.4797 0.5284,0.3852 1.3552,0.578 2.4868,0.578 v 0.6715 h -8.4552 v -0.6715 h 0.2549 c 0.5471,0.0124 1.057,-0.0808 1.5295,-0.2673 0.4723,-0.1866 0.8329,-0.4414 1.0755,-0.7524 0.2424,-0.3169 0.4289,-0.7645 0.5658,-1.3303 0.0247,-0.1369 0.0371,-0.7523 0.0371,-1.8589 v -15.6297 c 0,-1.2498 -0.0683,-2.0268 -0.1989,-2.3377 -0.1367,-0.311 -0.4102,-0.5845 -0.8207,-0.8207 -0.4164,-0.2361 -0.9697,-0.3543 -1.6599,-0.3543 h -0.7833 v -0.6777 h 10.0902 z m 27.5978,-14.8586 v 10.0531 h 0.491 c 1.5667,0 2.6983,-0.4913 3.407,-1.4735 0.7027,-0.9825 1.1503,-2.4372 1.3492,-4.352 h 0.69 v 12.9314 h -0.69 c -0.1493,-1.4111 -0.4538,-2.5614 -0.9201,-3.4628 -0.4725,-0.9015 -1.0134,-1.5047 -1.6353,-1.8154 -0.6154,-0.3047 -1.5168,-0.46 -2.6918,-0.46 v 6.9568 c 0,1.3615 0.0559,2.1883 0.1741,2.493 0.1119,0.3048 0.3294,0.5534 0.6466,0.7461 0.3106,0.199 0.8206,0.2923 1.5293,0.2923 h 1.4734 c 2.3066,0 4.153,-0.5346 5.5457,-1.6042 1.3927,-1.0629 2.3873,-2.692 2.9965,-4.8804 h 0.6715 l -1.1066,7.8523 h -21.3494 v -0.6715 h 0.8206 c 0.7149,0 1.2932,-0.1304 1.7283,-0.3856 0.3172,-0.1678 0.5595,-0.46 0.7274,-0.8764 0.1369,-0.286 0.2052,-1.0508 0.2052,-2.2941 v -16.2454 c 0,-1.1191 -0.0312,-1.8028 -0.0933,-2.0576 -0.1182,-0.423 -0.3481,-0.7523 -0.6715,-0.9825 -0.4663,-0.3419 -1.0942,-0.5097 -1.8961,-0.5097 h -0.8206 v -0.6777 h 20.6716 v 7.3051 h -0.6899 c -0.3544,-1.7844 -0.8456,-3.0651 -1.4859,-3.8421 -0.6342,-0.7772 -1.5356,-1.3493 -2.7046,-1.7098 -0.6775,-0.2237 -1.9519,-0.3294 -3.8234,-0.3294 z m 32.4902,14.8586 6.7082,-16.2824 h 10.053 v 0.6777 h -0.8019 c -0.7274,0 -1.3119,0.1242 -1.747,0.3793 -0.3047,0.174 -0.5471,0.4601 -0.7336,0.8578 -0.1307,0.2922 -0.199,1.0508 -0.199,2.2756 v 16.2825 c 0,1.262 0.0683,2.0517 0.199,2.3686 0.1366,0.3172 0.4102,0.5908 0.8206,0.8269 0.4165,0.2426 0.9635,0.3606 1.66,0.3606 h 0.8019 v 0.6715 h -12.9004 v -0.6715 h 0.8019 c 0.7336,0 1.3119,-0.1304 1.7532,-0.3856 0.2985,-0.1678 0.5471,-0.46 0.7274,-0.8764 0.1307,-0.286 0.199,-1.0508 0.199,-2.2941 v -18.303 l -9.4686,22.5306 h -0.4413 l -9.6177,-22.3691 v 17.3954 c 0,1.2124 0.0312,1.9647 0.0932,2.2445 0.1557,0.6029 0.5038,1.1004 1.0321,1.4797 0.5284,0.3852 1.355,0.578 2.4866,0.578 v 0.6715 h -8.4549 v -0.6715 h 0.2548 c 0.5471,0.0124 1.0571,-0.0808 1.5296,-0.2673 0.4723,-0.1866 0.8328,-0.4414 1.0755,-0.7524 0.2423,-0.3169 0.4288,-0.7645 0.5658,-1.3303 0.0246,-0.1369 0.0371,-0.7523 0.0371,-1.8589 v -15.6297 c 0,-1.2498 -0.0683,-2.0268 -0.199,-2.3377 -0.1366,-0.311 -0.4102,-0.5845 -0.8206,-0.8207 -0.4164,-0.2361 -0.9698,-0.3543 -1.66,-0.3543 h -0.7832 v -0.6777 h 10.0899 z m 31.8379,-16.6243 c 3.9353,-0.1491 7.1308,1.0009 9.5927,3.4381 2.4559,2.4432 3.6867,5.4958 3.6867,9.1639 0,3.1334 -0.9139,5.8875 -2.7479,8.2686 -2.4307,3.1584 -5.8626,4.7376 -10.2954,4.7376 -4.4391,0 -7.8769,-1.5046 -10.3079,-4.5199 -1.9148,-2.3811 -2.8786,-5.2038 -2.8786,-8.4676 0,-3.668 1.2498,-6.7269 3.7429,-9.1704 2.499,-2.4494 5.5641,-3.5994 9.2075,-3.4503 z m 0.2236,1.1625 c -2.2629,0 -3.979,1.1565 -5.1602,3.4631 -0.9572,1.8898 -1.436,4.6131 -1.436,8.1567 0,4.2151 0.7398,7.3301 2.2195,9.3444 1.0318,1.4111 2.4806,2.1138 4.3396,2.1138 1.2495,0 2.2941,-0.3048 3.1334,-0.9077 1.063,-0.7772 1.8961,-2.0205 2.4928,-3.7304 0.597,-1.7033 0.8955,-3.9291 0.8955,-6.671 0,-3.2701 -0.3048,-5.7133 -0.9139,-7.3299 -0.6095,-1.6225 -1.3802,-2.7666 -2.3253,-3.4381 -0.9388,-0.665 -2.0205,-1.0009 -3.2454,-1.0009 z m 24.2963,12.6207 v 6.9259 c 0,1.3368 0.0811,2.1758 0.2427,2.518 0.1678,0.3481 0.4538,0.6279 0.864,0.8331 0.4167,0.2049 1.1874,0.3107 2.319,0.3107 v 0.6715 h -12.6454 v -0.6715 c 1.1438,0 1.9149,-0.1058 2.325,-0.3232 0.4042,-0.2115 0.6903,-0.485 0.8581,-0.8269 0.1615,-0.3421 0.2423,-1.1749 0.2423,-2.5117 v -16.0277 c 0,-1.3365 -0.0808,-2.1759 -0.2423,-2.5242 -0.1678,-0.3481 -0.4539,-0.6217 -0.8705,-0.8269 -0.4102,-0.2112 -1.1812,-0.3107 -2.3126,-0.3107 v -0.6777 h 11.4767 c 2.9902,0 5.1726,0.2114 6.5591,0.6216 1.3802,0.4104 2.5115,1.1752 3.3882,2.2881 0.8703,1.1067 1.3119,2.412 1.3119,3.9042 0,1.8215 -0.6591,3.3261 -1.9709,4.5198 -0.8394,0.7523 -2.0081,1.3181 -3.5127,1.6912 l 5.9374,8.3619 c 0.777,1.0817 1.3303,1.7532 1.6537,2.0205 0.5035,0.3793 1.0755,0.5845 1.7346,0.6217 v 0.6715 h -7.7777 l -7.9577,-11.2592 z m 0,-12.1108 v 10.8176 h 1.0384 c 1.6849,0 2.9469,-0.1491 3.7862,-0.4601 0.8393,-0.3106 1.4984,-0.8702 1.9772,-1.6783 0.4785,-0.8085 0.7211,-1.859 0.7211,-3.1584 0,-1.8839 -0.4414,-3.2703 -1.3243,-4.1718 -0.8765,-0.9014 -2.2941,-1.349 -4.2526,-1.349 z" />
        <path
           inkscape:connector-curvature="0"
           id="path24-4-0-8-6"
           style="fill:#ffffff;fill-rule:evenodd"
           d="m 535.3353,374.5327 v 0.6715 h -12.9129 v -0.6715 h 0.8206 c 0.7149,0 1.2932,-0.1304 1.7283,-0.3856 0.3172,-0.1678 0.5595,-0.46 0.7273,-0.8764 0.137,-0.286 0.2053,-1.0508 0.2053,-2.2941 v -16.2454 c 0,-1.2619 -0.0683,-2.0514 -0.2053,-2.3686 -0.1303,-0.3172 -0.3977,-0.5907 -0.8081,-0.8269 -0.4042,-0.2361 -0.9576,-0.3543 -1.6475,-0.3543 h -0.8206 v -0.6777 h 12.9129 v 0.6777 h -0.8206 c -0.7152,0 -1.2932,0.1242 -1.7286,0.3793 -0.3169,0.174 -0.5655,0.4601 -0.7461,0.8765 -0.1304,0.2922 -0.1987,1.057 -0.1987,2.294 v 16.2454 c 0,1.262 0.0683,2.0517 0.205,2.3686 0.1431,0.3172 0.4167,0.5908 0.8206,0.8269 0.4105,0.2426 0.9575,0.3606 1.6478,0.3606 z m 16.3758,-6.3601 h -8.7228 l -1.0383,2.406 c -0.3419,0.8022 -0.5097,1.461 -0.5097,1.9834 0,0.6962 0.2798,1.2062 0.8393,1.5293 0.3232,0.199 1.1316,0.3419 2.4185,0.4414 v 0.6715 h -8.2128 v -0.6715 c 0.8827,-0.1367 1.6163,-0.5035 2.1821,-1.1067 0.5721,-0.5967 1.2807,-1.8402 2.1138,-3.7239 l 8.8345,-19.7081 h 0.3481 l 8.903,20.2552 c 0.8518,1.9211 1.548,3.1272 2.0951,3.6244 0.4167,0.3793 1.0009,0.597 1.7532,0.6591 v 0.6715 H 550.766 v -0.6715 h 0.4909 c 0.9576,0 1.6354,-0.1367 2.0209,-0.404 0.2673,-0.1927 0.4039,-0.4725 0.4039,-0.8393 0,-0.2177 -0.0371,-0.4414 -0.112,-0.6715 -0.0246,-0.112 -0.2049,-0.5658 -0.5471,-1.3678 z m -0.622,-1.349 -3.6742,-8.5051 -3.7925,8.5051 z" />
      </g>
    </g>
  </g>
</svg>
