<?xml version="1.0" encoding="UTF-8" standalone="no"?>
<!-- Created with Inkscape (http://www.inkscape.org/) -->

<svg
   xmlns:dc="http://purl.org/dc/elements/1.1/"
   xmlns:cc="http://creativecommons.org/ns#"
   xmlns:rdf="http://www.w3.org/1999/02/22-rdf-syntax-ns#"
   xmlns:svg="http://www.w3.org/2000/svg"
   xmlns="http://www.w3.org/2000/svg"
   xmlns:sodipodi="http://sodipodi.sourceforge.net/DTD/sodipodi-0.dtd"
   xmlns:inkscape="http://www.inkscape.org/namespaces/inkscape"
   width="400"
   height="400"
   viewBox="0 0 105.83333 105.83334"
   version="1.1"
   id="svg174"
   inkscape:version="0.92.3 (2405546, 2018-03-11)"
   sodipodi:docname="numeros-ninos.svg">
  <defs
     id="defs168" />
  <sodipodi:namedview
     id="base"
     pagecolor="#ffffff"
     bordercolor="#666666"
     borderopacity="1.0"
     inkscape:pageopacity="0.0"
     inkscape:pageshadow="2"
     inkscape:zoom="1.4"
     inkscape:cx="264.94192"
     inkscape:cy="189.00162"
     inkscape:document-units="mm"
     inkscape:current-layer="layer1"
     showgrid="false"
     units="px"
     inkscape:window-width="1660"
     inkscape:window-height="879"
     inkscape:window-x="95"
     inkscape:window-y="34"
     inkscape:window-maximized="0" />
  <metadata
     id="metadata171">
    <rdf:RDF>
      <cc:Work
         rdf:about="">
        <dc:format>image/svg+xml</dc:format>
        <dc:type
           rdf:resource="http://purl.org/dc/dcmitype/StillImage" />
        <dc:title></dc:title>
      </cc:Work>
    </rdf:RDF>
  </metadata>
  <g
     inkscape:label="Layer 1"
     inkscape:groupmode="layer"
     id="layer1"
     transform="translate(0,-191.16664)">
    <g
       id="g272"
       transform="matrix(4.7484616,0,0,4.7910457,-1028.3711,-199.63643)"
       style="display:inline;fill:#000000">
      <g
         id="g268"
         style="fill:#000000">
        <path
           inkscape:connector-curvature="0"
           d="m 216.59822,83.531361 v 18.295359 c 0,0.36488 0.39182,1.04595 0.60233,1.25394 0.28411,0.28082 0.76999,0.59811 1.30807,0.59811 h 18.37613 c 1.02918,0 2.00139,-0.93773 2.00139,-1.89722 V 83.576631 c 0,-0.82815 -0.8459,-1.89738 -1.63751,-1.89738 -0.0821,-0.0546 -0.0799,-0.0903 -0.18184,-0.0903 h -18.46713 c -0.96856,0 -2.00144,1.00489 -2.00144,1.94244 z m 17.79921,-0.69628 h -0.45125 l -0.0752,19.569409 h 0.6022 z m -9.17541,5.07908 -0.0752,0.0747 -0.0752,0.0747 -0.0752,0.0747 -0.13536,0.16428 -0.0151,-2.18099 0.0752,0.0747 c 0.42109,0.28001 0.5886,0.74689 1.35377,0.74689 h 0.30086 c 0.2028,0 0.67783,-0.22024 0.82724,-0.29877 l 0.0752,-0.0747 0.0752,-0.0747 0.0752,-0.0747 0.13542,-0.1643 0.015,1.88227 -0.15042,-0.0747 -0.0752,-0.0747 -0.0752,-0.0747 -0.0752,-0.0747 c -0.14941,-0.0785 -0.62444,-0.29874 -0.82724,-0.29874 h -0.30086 c -0.56078,0 -0.6822,0.27517 -1.05294,0.37346 z m 0.22564,13.071149 c 0.0985,0.41984 0.38079,0.67223 0.9025,0.67223 0.52173,0 0.80398,-0.25239 0.90252,-0.67223 v -4.481529 h 0.52641 v 5.826009 h 0.4513 v -5.826009 h 2.55707 v 5.826009 h 0.45124 l 0.0752,-5.751299 0.0752,-0.0747 -0.0578,-4.40856 -0.0927,0.002 v -9.26192 h -0.52643 v 8.21618 c -0.62108,-0.41304 -1.03936,-1.12037 -2.18104,-1.12037 h -0.22563 v -7.09581 h -0.5265 v 1.34443 c -0.39724,-0.26416 -0.69167,-0.6722 -1.35371,-0.6722 h -0.0752 c -0.78,0 -0.98817,0.45384 -1.42897,0.74691 v -1.41914 h -0.52644 v 19.494709 h 0.45125 v -5.826019 h 0.60166 z m -4.28683,1.34448 h 0.52639 V 82.835081 h -0.52639 z m -3.15878,0 h 0.52649 V 82.835081 h -0.52649 z m 19.10286,0 h 0.52647 V 82.835081 h -0.52647 z"
           style="fill:#000000;fill-rule:evenodd;stroke-width:0.26458332"
           id="path353" />
      </g>
    </g>
  </g>
</svg>
