<?xml version="1.0" encoding="UTF-8" standalone="no"?>
<!-- Created with Inkscape (http://www.inkscape.org/) -->

<svg
   xmlns:dc="http://purl.org/dc/elements/1.1/"
   xmlns:cc="http://creativecommons.org/ns#"
   xmlns:rdf="http://www.w3.org/1999/02/22-rdf-syntax-ns#"
   xmlns:svg="http://www.w3.org/2000/svg"
   xmlns="http://www.w3.org/2000/svg"
   xmlns:sodipodi="http://sodipodi.sourceforge.net/DTD/sodipodi-0.dtd"
   xmlns:inkscape="http://www.inkscape.org/namespaces/inkscape"
   width="400"
   height="400"
   viewBox="0 0 105.83333 105.83334"
   version="1.1"
   id="svg174"
   inkscape:version="0.92.3 (2405546, 2018-03-11)"
   sodipodi:docname="numeros-deuda.svg">
  <defs
     id="defs168" />
  <sodipodi:namedview
     id="base"
     pagecolor="#ffffff"
     bordercolor="#666666"
     borderopacity="1.0"
     inkscape:pageopacity="0.0"
     inkscape:pageshadow="2"
     inkscape:zoom="1.4"
     inkscape:cx="264.94192"
     inkscape:cy="189.00162"
     inkscape:document-units="mm"
     inkscape:current-layer="layer1"
     showgrid="false"
     units="px"
     inkscape:window-width="1660"
     inkscape:window-height="879"
     inkscape:window-x="95"
     inkscape:window-y="34"
     inkscape:window-maximized="0" />
  <metadata
     id="metadata171">
    <rdf:RDF>
      <cc:Work
         rdf:about="">
        <dc:format>image/svg+xml</dc:format>
        <dc:type
           rdf:resource="http://purl.org/dc/dcmitype/StillImage" />
        <dc:title></dc:title>
      </cc:Work>
    </rdf:RDF>
  </metadata>
  <g
     inkscape:label="Layer 1"
     inkscape:groupmode="layer"
     id="layer1"
     transform="translate(0,-191.16664)">
    <path
       inkscape:connector-curvature="0"
       d="m 0.14276693,200.8166 v 87.65341 c 0,1.74805 1.86094577,5.01165 2.85991637,6.00771 1.3491173,1.34565 3.6562176,2.86583 6.2115954,2.86583 H 96.472766 c 4.886774,0 9.503324,-4.49288 9.503324,-9.09013 v -87.22023 c 0,-3.96733 -4.01671,-9.08996 -7.775393,-9.08996 -0.389338,-0.26178 -0.379498,-0.43301 -0.864074,-0.43301 H 9.6464853 c -4.5992689,0 -9.50371837,4.81453 -9.50371837,9.30638 z M 69.510015,242.45367 c 1.351,-0.85878 12.825492,-0.28079 15.58816,-0.28079 5.894906,0 11.789812,1.09045 11.789812,-5.06314 v -0.56265 c 0,-5.48669 -5.940343,-4.78183 -11.50906,-4.78183 -5.427017,0 -9.880264,0 -15.307495,0 -0.299061,0.62421 -1.40371,6.26019 -1.40371,7.31331 0,1.37361 0.275532,2.55771 0.842293,3.37527 z m -49.536128,-37.9732 -0.294784,9.28249 H 3.1309507 l 0.2802371,31.50358 H 4.8147265 19.972903 v 2.81283 c 0,2.37848 3.263115,5.84839 5.895034,5.90697 l 21.797017,0.0505 1.354551,-1.17727 c 2.85923,-1.91868 10.163365,-8.84632 10.163365,-13.50155 v -1.12513 c 0,-3.42058 -1.882079,-10.25254 -2.637565,-13.50167 0.346551,-0.51851 1.579168,-2.12426 2.446192,-2.12426 1.032555,0 0.651946,0.84391 1.684247,0.84391 h 0.281091 c 1.060924,0 2.000808,-0.84391 3.368281,-0.84391 0.923541,0 1.215117,0.84391 2.526498,0.84391 1.367343,0 1.601587,-0.84391 1.964997,-0.84391 0.798568,0 2.811698,1.56182 2.811698,2.12426 0,0.47357 -1.699905,3.63812 -1.699905,5.62579 l -0.280237,0.56265 0.280237,-0.56265 c 6.83047,0 13.110863,0 19.941333,0 6.825422,0 14.596753,1.24168 14.596753,-5.62579 v -0.56266 c 0,-2.3691 -2.42646,-5.06322 -5.052602,-5.06322 H 61.79879 v -1.68761 h 32.281648 c 2.75762,0 5.33345,-2.28236 5.33345,-5.06306 v -1.68761 c 0,-2.63041 -2.715607,-4.50066 -5.614242,-4.50066 H 69.939614 c 0,4.96063 -4.948047,9.28219 -9.544235,9.28219 H 50.8514 c -0.577374,6.95452 -3.414231,12.00297 -7.228922,15.82171 -2.590332,2.59356 -10.020938,8.00465 -14.385663,8.36881 l -0.661273,-1.93284 c 3.960799,-0.12225 10.998774,-5.20505 13.223301,-7.41907 1.953315,-1.94429 7.315898,-9.72303 6.806509,-13.43204 l -0.280239,-2.81283 v -0.0929 m 5.87895,-0.7459 c 3.528591,0.0302 6.621383,0.1283 8.996039,-1.13269 1.974453,-1.04815 4.7746,-3.2131 4.7746,-6.18602 0,-3.80103 -4.257937,-7.31336 -8.140825,-7.31336 h -34.52697 c -2.222088,0 -5.019283,2.87611 -5.308847,5.47507 m -2.14e-4,0.004 v 0 c -0.01283,0.14341 -0.02139,0.2864 -0.02139,0.42766 z m 60.812145,50.215 c 4.030451,0 5.691254,-0.48299 5.691254,-4.50048 v -1.12496 c 0,-6.24983 -9.189297,-4.21936 -15.235404,-4.21936 1.437981,2.72272 7.095476,8.20168 9.54415,9.8448 z m -20.414528,7.03197 c 0,2.13907 1.089203,2.97439 2.807036,3.37566 v -5.62584 h -0.841951 c -0.820349,0 -1.965,1.40199 -1.965085,2.25018 z m 4.491239,14.62681 c 1.908778,-0.0436 2.807078,-1.25896 2.807078,-3.09427 0,-1.85872 -1.524791,-2.47748 -2.807078,-3.09392 z M 67.4132,262.14137 c 0,-1.33447 -0.518546,-3.09405 -1.684417,-3.09405 h -0.842081 v 6.18827 c 4.10541,0.95826 7.298531,2.47131 7.298531,7.59445 v 0.84409 c 0,3.76638 -4.041576,5.42782 -7.298531,6.18806 v 3.09422 h -1.684203 v -3.3754 h -1.403625 c -4.030496,0 -6.175528,-3.3792 -6.175528,-7.59475 h 4.49141 c 0.195951,2.3586 0.677746,3.73701 3.087743,3.93805 v -6.75084 c -3.307439,-0.77216 -7.017652,-2.41718 -7.017652,-6.46966 v -1.68736 c 0,-3.16429 3.323955,-5.62583 7.017652,-5.62583 v -2.25031 h 1.684203 v 2.25031 c 3.410937,0 6.483533,2.29281 6.73703,5.34449 v 1.40626 z m -17.123301,-9.2821 -4.491239,4.50057 c -3.095744,4.63267 -7.859818,8.9516 -7.859818,16.59551 v 3.37526 c 0,13.44328 13.458015,10.68863 25.825029,10.68863 11.673139,0 26.105951,2.59451 26.105951,-9.84471 v -3.65675 c 0,-4.31382 -1.862315,-9.29916 -3.721291,-11.7414 -1.165915,-1.53167 -2.026906,-3.18226 -3.364044,-4.50494 -0.789798,-0.7814 -3.064468,-3.23211 -3.581559,-4.00591 -2.448888,-1.64303 -8.106257,-7.12208 -9.544151,-9.8448 l -1.122659,-1.96913 c -0.567319,-0.81757 -0.842338,-2.00166 -0.842338,-3.37527 0,-1.05312 1.104861,-6.6892 1.403411,-7.31332 v -0.84227 l 0.281094,-0.56265 c 0,-1.98767 1.403453,-5.15235 1.403453,-5.6258 0,-0.56265 -1.166429,-1.12508 -1.964997,-1.12508 -0.363667,0 -0.597443,0.844 -1.965,0.844 -1.311381,0 -1.602954,-0.844 -2.526411,-0.844 -1.367472,0 -2.307444,0.844 -3.368365,0.844 h -0.280236 c -1.032643,0 -0.65195,-0.844 -1.684248,-0.844 -0.867108,0 -1.337609,0.60684 -1.684205,1.12508 0.755187,3.24913 2.806994,10.08114 2.806994,13.50172 v 1.12509 c 0,4.65522 -6.965498,11.58287 -9.8249,13.50163 z"
       style="display:inline;fill:#000000;fill-rule:evenodd;stroke-width:1.2663343"
       id="path329" />
  </g>
</svg>
