<?xml version="1.0" encoding="UTF-8" standalone="no"?>
<!-- Created with Inkscape (http://www.inkscape.org/) -->

<svg
   xmlns:dc="http://purl.org/dc/elements/1.1/"
   xmlns:cc="http://creativecommons.org/ns#"
   xmlns:rdf="http://www.w3.org/1999/02/22-rdf-syntax-ns#"
   xmlns:svg="http://www.w3.org/2000/svg"
   xmlns="http://www.w3.org/2000/svg"
   xmlns:sodipodi="http://sodipodi.sourceforge.net/DTD/sodipodi-0.dtd"
   xmlns:inkscape="http://www.inkscape.org/namespaces/inkscape"
   width="400"
   height="400"
   viewBox="0 0 105.83333 105.83334"
   version="1.1"
   id="svg174"
   inkscape:version="0.92.3 (2405546, 2018-03-11)"
   sodipodi:docname="numeros-exiliados.svg">
  <defs
     id="defs168" />
  <sodipodi:namedview
     id="base"
     pagecolor="#ffffff"
     bordercolor="#666666"
     borderopacity="1.0"
     inkscape:pageopacity="0.0"
     inkscape:pageshadow="2"
     inkscape:zoom="1.4"
     inkscape:cx="264.94192"
     inkscape:cy="189.00162"
     inkscape:document-units="mm"
     inkscape:current-layer="layer1"
     showgrid="false"
     units="px"
     inkscape:window-width="1660"
     inkscape:window-height="879"
     inkscape:window-x="95"
     inkscape:window-y="34"
     inkscape:window-maximized="0" />
  <metadata
     id="metadata171">
    <rdf:RDF>
      <cc:Work
         rdf:about="">
        <dc:format>image/svg+xml</dc:format>
        <dc:type
           rdf:resource="http://purl.org/dc/dcmitype/StillImage" />
        <dc:title></dc:title>
      </cc:Work>
    </rdf:RDF>
  </metadata>
  <g
     inkscape:label="Layer 1"
     inkscape:groupmode="layer"
     id="layer1"
     transform="translate(0,-191.16664)">
    <path
       inkscape:connector-curvature="0"
       d="m 80.289997,255.41822 h -1.26526 c -1.6317,0 -1.98484,-1.52095 -2.53022,-1.52095 -1.2929,0 -0.28194,2.23907 -0.25319,3.54897 h 9.10847 v -1.26722 c 0,-1.14157 -0.47836,-2.53561 -1.51824,-2.53561 h -1.26479 c -0.25748,0.96691 -1.06644,1.77481 -2.27707,1.77481 z m -19.05093,-2.64116 c 0.50789,-6.11452 0.43231,-12.94197 0.43231,-19.69437 0,-6.7173 -1.05253,-14.50108 5.61532,-14.50108 3.98426,0 4.37052,2.14201 5.8316,4.32879 0,3.69862 -0.0811,4.11471 0.73421,7.05565 0.50286,1.81277 1.22041,4.12411 1.83043,5.74099 0.64816,1.71909 3.35901,10.1661 3.48281,11.65984 h 1.72813 c 1.76065,0 2.15962,2.09605 2.15962,3.89534 v 1.08229 h 9.50396 c 1.40848,0 2.59165,2.3363 2.59165,4.11215 v 16.66508 c 0,1.59396 -1.76713,3.03007 -3.45571,3.03007 h -14.47176 v 0.64932 c 0,3.10295 2.52512,9.95578 -2.15923,9.95578 h -0.86441 c -3.55796,0 -4.1033,-6.929 -4.1033,-10.6051 h -5.18391 c -0.32614,3.92047 -0.50213,10.38842 -4.53574,10.38842 -1.55724,0 -3.45578,-1.49821 -3.45578,-2.81374 0,-5.48817 1.94879,-10.3135 1.94403,-15.79916 -0.004,-4.61757 -1.43421,-14.2604 2.37577,-15.15027 z m -8.42327,-8.87336 c -0.20641,0.77401 -8.86893,6.43792 -10.19298,7.31692 -1.36478,0.90608 -9.67828,6.75097 -10.54191,6.75097 h -0.43236 c -0.51938,0 -1.29564,-0.77744 -1.29564,-1.29859 v -0.21621 l 0.88578,-6.92246 -19.89259,-0.004 v -10.82109 h 19.87109 l -0.86428,-7.14227 c -0.0841,-0.65439 0.98002,-1.29863 1.72791,-1.29863 0.605,0 9.51199,6.09337 10.42566,6.86713 0.7306,0.61812 9.85345,6.64603 10.30915,6.76782 z m 11.4473,-32.68044 c 0,-2.63856 2.96391,-5.84355 5.61549,-5.84355 h 0.43162 c 3.78351,0 6.47955,2.49558 6.47955,6.27627 0,3.3936 -2.56575,6.27644 -5.83143,6.27644 h -0.64812 c -3.05643,0 -6.04749,-2.98393 -6.04749,-5.84359 z M 0.33119258,200.40178 v 87.65363 c 0,1.74769 1.86064302,5.01178 2.85971202,6.00785 1.349114,1.34526 3.656314,2.86547 6.21164,2.86547 H 96.661167 c 4.886903,0 9.503363,-4.49301 9.503363,-9.08987 v -87.22083 c 0,-3.96726 -4.017,-9.08978 -7.775413,-9.08978 -0.39008,-0.26171 -0.37978,-0.43285 -0.86423,-0.43285 H 9.8343836 c -4.599339,0 -9.50319102,4.81441 -9.50319102,9.30633 z"
       style="display:inline;fill:#000000;fill-rule:evenodd;stroke-width:1.27177906"
       id="path335" />
  </g>
</svg>
