<?xml version="1.0" encoding="UTF-8" standalone="no"?>
<!-- Created with Inkscape (http://www.inkscape.org/) -->

<svg
   xmlns:dc="http://purl.org/dc/elements/1.1/"
   xmlns:cc="http://creativecommons.org/ns#"
   xmlns:rdf="http://www.w3.org/1999/02/22-rdf-syntax-ns#"
   xmlns:svg="http://www.w3.org/2000/svg"
   xmlns="http://www.w3.org/2000/svg"
   xmlns:sodipodi="http://sodipodi.sourceforge.net/DTD/sodipodi-0.dtd"
   xmlns:inkscape="http://www.inkscape.org/namespaces/inkscape"
   width="400"
   height="400"
   viewBox="0 0 105.83333 105.83334"
   version="1.1"
   id="svg370"
   inkscape:version="0.92.3 (2405546, 2018-03-11)"
   sodipodi:docname="numeros-desaparecidos.svg">
  <defs
     id="defs364" />
  <sodipodi:namedview
     id="base"
     pagecolor="#ffffff"
     bordercolor="#666666"
     borderopacity="1.0"
     inkscape:pageopacity="0.0"
     inkscape:pageshadow="2"
     inkscape:zoom="0.98994949"
     inkscape:cx="285.99444"
     inkscape:cy="176.61262"
     inkscape:document-units="mm"
     inkscape:current-layer="layer1"
     showgrid="false"
     units="px"
     inkscape:window-width="1597"
     inkscape:window-height="769"
     inkscape:window-x="57"
     inkscape:window-y="80"
     inkscape:window-maximized="0" />
  <metadata
     id="metadata367">
    <rdf:RDF>
      <cc:Work
         rdf:about="">
        <dc:format>image/svg+xml</dc:format>
        <dc:type
           rdf:resource="http://purl.org/dc/dcmitype/StillImage" />
        <dc:title></dc:title>
      </cc:Work>
    </rdf:RDF>
  </metadata>
  <g
     inkscape:label="Layer 1"
     inkscape:groupmode="layer"
     id="layer1"
     transform="translate(0,-191.16665)">
    <path
       d="m 51.377483,212.54482 c -0.014,2.12986 2.96389,4.81413 5.15633,4.82901 l 1.97643,0.0132 c 1.79571,0.0123 4.71163,-2.57986 4.72314,-4.30516 l 0.0122,-1.82607 c 0.0134,-2.00572 -3.33736,-4.81658 -5.65048,-4.83232 l -0.74108,-0.005 c -2.65239,-0.0181 -5.45888,3.49876 -5.47643,6.12612 z m 0.93952,7.31142 0.008,-1.14127 -3.21187,-0.0215 -0.008,1.14128 z m 3.06918,58.46029 0.20242,-30.35965 0.49422,0.003 -0.16616,13.25002 0.54617,3.8734 -0.0685,10.2721 c -0.008,1.11631 -0.47625,2.26329 -1.00811,2.96079 z m -8.32705,-11.01389 0.0107,-1.59792 1.23529,0.009 -0.005,0.68461 c -0.005,0.73223 -0.47512,0.84975 -1.24138,0.90487 z m -9.63703,0.16257 -0.49395,-0.003 c -0.66096,-0.004 -0.72876,-0.33439 -0.98378,-0.69159 l 2.47052,0.0166 0.0122,-1.82624 c 0.003,-0.37928 0.74964,-1.25625 0.7595,-2.73411 l 0.10196,-15.29399 0.49426,0.003 -0.12633,18.94615 c -0.009,1.28015 -0.86477,1.59228 -2.2343,1.58295 z m 9.84403,-31.20727 1.48242,0.01 0.74282,-0.22329 0.5069,0.0231 0.48247,-0.24461 0.23645,1.59958 -3.73838,-0.028 z m -15.11044,5.8325 -0.13239,19.8594 c -0.009,1.30296 0.6189,1.74342 0.72144,2.97239 0.80656,0.0669 1.72857,0.14541 1.72339,0.92479 l -0.13088,19.63124 c -0.009,1.42232 -1.58807,3.18513 -3.23329,3.17399 l -1.48218,-0.01 c -2.058293,-0.0142 -3.199761,-1.85298 -3.186079,-3.90239 l 0.129347,-19.40291 -12.353211,-0.0839 0.103479,-15.52209 c 0.02225,-3.33497 4.299545,-6.8193 8.446037,-6.79112 l 1.235125,0.009 0.02895,-4.33696 c 0.01857,-2.80871 3.353022,-5.45626 6.707172,-5.43342 l 0.74103,0.005 c 1.88207,0.0129 5.26732,2.45695 5.4082,4.14593 -2.31568,0.48199 -4.70913,2.18679 -4.7263,4.76167 z m 41.98911,39.09282 -0.19687,-7.53465 -4.20016,-0.0286 -0.49402,-0.003 c -0.0274,4.10873 -0.0548,8.21756 -0.0822,12.32657 -0.0125,1.86007 0.2973,4.45083 -0.30545,5.91592 -0.44321,1.07802 -2.39786,2.74031 -3.9527,2.7297 l -1.23529,-0.009 c -6.56486,-0.0446 -4.62467,-10.44011 -4.58451,-16.46733 -0.53322,-0.74605 -1.47386,-1.28858 -1.46562,-2.52101 l 0.0152,-2.2828 -0.74129,-0.005 0.17655,-26.47927 c 0.005,-0.74174 0.21503,-0.17042 0.50153,-1.13786 l -3.45866,-0.0237 -0.30742,46.11035 c -0.005,0.77749 -1.38476,1.36008 -2.23265,1.35434 -0.85922,-0.006 -2.21292,-1.60103 -2.20675,-2.52616 l 0.17503,-26.25074 -3.95323,-0.0268 -0.17351,26.0227 c -0.0113,1.68606 -0.42717,2.73634 -2.24164,2.724 -0.96448,-0.007 -2.21782,-0.88604 -2.21299,-1.61288 l 0.30441,-45.65395 -3.21186,-0.0215 -0.1111,16.66391 c -0.006,0.83394 -0.69392,1.82144 -1.49445,1.816 l -0.24673,-0.004 c -1.60752,-0.0111 -2.71399,-0.5947 -2.70411,-2.07287 l 0.12938,-19.40277 c 0.014,-2.08595 1.39021,-4.09949 3.48645,-4.08527 l 21.00023,0.14276 c 0.66733,0.005 0.68026,0.11431 1.23405,0.23471 -0.66989,-0.93755 -2.20641,-2.59537 -2.19622,-4.12402 l 0.0122,-1.8261 c 0.0171,-2.57617 3.734,-5.90987 6.71019,-5.8896 l 0.49431,0.003 c 2.173,0.0151 3.03509,0.47289 4.43953,1.1715 0.63676,-0.27758 1.50867,-0.44648 2.47374,-0.4399 l 19.2708,0.13101 c 2.20884,0.0148 4.438177,1.35037 4.424167,3.45424 l -0.13712,20.54414 c -0.006,0.83422 -0.6941,1.82146 -1.49451,1.81601 l -0.494297,-0.003 c -1.76609,-0.0123 -2.46613,-0.66741 -2.45526,-2.29943 l 0.10818,-16.20717 -3.21198,-0.0215 -0.30135,45.19719 c -0.008,1.12829 -1.01583,2.04777 -2.23733,2.03944 l -0.24672,-0.004 c -0.76767,-0.006 -1.96734,-1.35718 -1.96108,-2.29618 l 0.17807,-26.70741 -3.45889,-0.0237 c -0.94468,-0.007 -0.0895,-0.0709 -0.74282,0.22329 1.09884,1.53761 2.20289,3.1251 2.18558,5.72185 l -0.0928,13.92439 -1.48246,-0.01 c -1.27988,-0.009 -0.76846,4.01488 -0.77637,5.24521 -0.0149,2.36926 0.45998,3.8839 -2.24926,3.8655 l -0.49427,-0.003 c -0.78835,-0.005 -1.30155,-0.7706 -1.47325,-1.37972 z m -46.62295,-48.97971 0.01553,-1.55846 c 1.157541,0.0977 1.218636,0.46454 2.46762,0.47366 l 1.9763,0.0135 -0.0186,0.57933 z m 21.48284,2.69649 -2.22357,-0.0154 c -1.73551,-0.0114 -4.67668,-2.64691 -4.66519,-4.36882 l 0.005,-0.68467 c 0.0177,-2.6314 2.7281,-5.46033 5.71896,-5.43994 l 0.74108,0.005 c 2.35688,0.016 5.16872,2.96527 5.15476,5.05722 -0.0168,2.49687 -2.26162,5.46311 -4.7306,5.44636 z M 24.127452,223.31708 c 0.02133,-3.2027 3.329578,-5.91243 6.957171,-5.88775 3.19968,0.0215 6.40391,3.00672 6.38258,6.20675 l -0.006,0.91323 c -0.0152,2.26852 -3.52723,5.22645 -6.2116,5.20824 l -1.48242,-0.01 c -3.106448,-0.0212 -5.660521,-3.30447 -5.63968,-6.43037 z m 56.819851,1.07105 -0.24672,-0.004 c -2.66821,-0.0181 -5.66757,-2.26944 -5.652,-4.604 0.0195,-2.94495 2.64033,-6.14557 5.72351,-6.12462 l 0.24672,0.004 c 2.49062,0.0169 5.66282,2.98134 5.64895,5.06064 -0.0216,3.25334 -2.29349,5.69124 -5.72046,5.66798 z m -22.6932,-5.63298 -1.23526,-0.009 -0.008,1.14131 10.12957,0.0688 c 2.97533,0.02 6.40954,2.14301 6.3916,4.83741 l -0.0122,1.826 -1.48245,-0.01 0.0137,-2.05432 c 0.011,-1.67513 -2.80349,-3.21508 -4.6728,-3.22769 l -20.01215,-0.13604 c -2.46561,-0.0169 -4.09771,1.28798 -4.61732,3.25584 -0.58715,2.22281 -2.09527,2.99357 -2.11266,5.60136 -0.0177,2.64173 1.95151,3.76621 1.94762,4.35067 l -0.0198,2.96741 -3.70613,-0.0252 c -0.85548,-0.006 -1.01485,-1.45224 -1.56008,-2.2079 -0.45503,-0.63075 -1.87445,-1.43817 -1.86968,-2.15271 l 0.0198,-2.96754 c 0.005,-0.81267 3.22728,-2.32953 3.25118,-5.9131 l 0.008,-1.1413 c 0.0186,-2.76756 -3.54142,-6.64424 -6.37942,-6.66354 l -2.71756,-0.0185 c -0.89557,-0.006 -1.380331,0.18204 -1.979591,0.44327 0.02043,-3.03976 0.770062,-5.4734 3.989381,-5.45153 l 18.5299,0.12594 c 0.26403,-2.72826 3.65116,-6.1387 6.71173,-6.11792 l 1.2353,0.009 c 3.20226,0.0218 6.64929,3.28508 6.62979,6.20848 l -0.0122,1.82621 c -0.0161,2.43906 -3.57461,5.45433 -6.46034,5.4347 z m -21.88054,-16.3565 c 0.0174,-2.62312 3.22771,-6.14146 5.47644,-6.12616 l 0.74118,0.005 c 2.17141,0.0148 5.66254,3.00066 5.65187,4.60403 l -0.009,1.36957 c -0.0186,2.77219 -2.97853,5.23012 -5.9644,5.20984 -2.20205,-0.0148 -5.91409,-2.35313 -5.90058,-4.37731 z m -35.56792571,-1.61129 -0.581383,87.19872 c -0.02255,3.40112 4.51470361,8.70519 8.83643661,8.73453 l 87.9543591,0.59761 c 3.71632,0.0252 8.4303,-4.47669 8.45336,-7.93244 l 0.58898,-88.33988 c 0.0244,-3.45662 -3.79909,-8.47213 -7.3556,-8.49632 -0.44399,-0.27949 -0.43119,-0.45931 -0.98506,-0.46355 L 9.2684709,191.48508 c -3.598358,-0.0246 -8.43698561,5.43971 -8.46276061,9.30183 z m 62.74532571,38.77713 0.98848,0.007 c 7.69142,0.0522 7.90279,-10.90369 0.56684,-10.95355 l -1.4823,-0.01 c -6.5338,-0.0444 -6.57131,10.91271 -0.073,10.9568 z m 1.48481,1.43481 c 0.13203,0.45497 0.0418,0.63008 0.72499,0.63478 l 0.74113,0.006 0.009,-0.90198 z m -3.17001,0.8256 c 0.95636,-0.0604 0.4941,-0.21357 1.42445,-0.20767 0.68357,0.005 0.59539,-0.17195 0.71876,-0.57777 l -2.42891,-0.57774 z m 10.35357,-5.39716 0.74119,0.005 -0.0746,11.18509 c -0.004,0.61039 -0.3612,0.67264 -0.74735,0.90798 z m -1.24431,1.36103 -0.0442,6.6196 c -0.009,1.31023 0.80615,2.3697 0.94897,3.67287 0.33124,3.02543 -0.90529,2.04572 2.22026,2.74062 l 0.10348,-15.52228 -2.47072,-0.0166 c -0.11755,1.21101 -0.75168,1.57822 -0.75786,2.50599 z m -12.11165,37.81206 0.49419,0.003 0.0137,-2.05445 -0.49413,-0.003 z m -0.71844,-3.42908 2.47053,0.0172 -0.12024,18.0332 c -0.0128,1.91572 1.75852,2.97946 3.93333,2.99427 1.39233,0.009 3.22137,-1.42789 3.22999,-2.71734 l 0.12173,-18.26144 11.365,0.0772 0.0807,-12.09834 c 0.0361,-5.41153 -3.0842,-8.46729 -8.83807,-8.50642 l 0.0183,-2.73903 c 0.0542,-8.13364 -12.05311,-8.00889 -12.09991,-0.99533 z"
       style="display:inline;fill:#000000;fill-rule:evenodd;stroke-width:1.24879718"
       id="path1226"
       inkscape:connector-curvature="0" />
  </g>
</svg>
