<?xml version="1.0" encoding="UTF-8" standalone="no"?>
<!-- Created with Inkscape (http://www.inkscape.org/) -->

<svg
   xmlns:dc="http://purl.org/dc/elements/1.1/"
   xmlns:cc="http://creativecommons.org/ns#"
   xmlns:rdf="http://www.w3.org/1999/02/22-rdf-syntax-ns#"
   xmlns:svg="http://www.w3.org/2000/svg"
   xmlns="http://www.w3.org/2000/svg"
   xmlns:sodipodi="http://sodipodi.sourceforge.net/DTD/sodipodi-0.dtd"
   xmlns:inkscape="http://www.inkscape.org/namespaces/inkscape"
   width="100mm"
   height="165mm"
   viewBox="0 0 100 165"
   version="1.1"
   id="svg283"
   inkscape:version="0.92.3 (2405546, 2018-03-11)"
   sodipodi:docname="videla.svg">
  <defs
     id="defs277" />
  <sodipodi:namedview
     id="base"
     pagecolor="#ffffff"
     bordercolor="#666666"
     borderopacity="1.0"
     inkscape:pageopacity="0.0"
     inkscape:pageshadow="2"
     inkscape:zoom="0.7"
     inkscape:cx="214.66733"
     inkscape:cy="417.54488"
     inkscape:document-units="mm"
     inkscape:current-layer="layer1"
     showgrid="false"
     inkscape:window-width="1773"
     inkscape:window-height="946"
     inkscape:window-x="106"
     inkscape:window-y="30"
     inkscape:window-maximized="0" />
  <metadata
     id="metadata280">
    <rdf:RDF>
      <cc:Work
         rdf:about="">
        <dc:format>image/svg+xml</dc:format>
        <dc:type
           rdf:resource="http://purl.org/dc/dcmitype/StillImage" />
        <dc:title></dc:title>
      </cc:Work>
    </rdf:RDF>
  </metadata>
  <g
     inkscape:label="Layer 1"
     inkscape:groupmode="layer"
     id="layer1"
     transform="translate(0,-132)">
    <path
       style="fill:#000000;stroke-width:0.44807088"
       d="m 0.22409739,276.14591 v -21.48733 l 2.98671501,-0.29641 c 4.158739,-0.41272 13.0642706,-2.72574 14.4328546,-3.74861 1.420589,-1.06176 1.426594,-1.6142 0.05048,-4.64548 -0.930717,-2.0502 -1.20876,-2.34671 -1.760347,-1.87729 -0.527815,0.4492 -0.706657,0.41958 -0.920734,-0.15245 -0.14613,-0.39048 -0.160697,-0.88415 -0.03239,-1.09705 0.128303,-0.2129 0.03659,-1.19252 -0.203814,-2.17699 -0.240407,-0.98444 -0.623015,-4.03587 -0.85024,-6.78098 -0.795632,-9.61203 -0.951105,-10.88909 -1.538532,-12.63748 -0.325566,-0.96904 -0.474024,-2.07695 -0.329908,-2.46206 0.205753,-0.54984 0.03775,-0.64008 -0.782234,-0.4202 -1.6441996,0.4409 -4.0957496,-1.23452 -5.0250826,-3.43422 -0.436147,-1.03234 -0.871666,-3.31548 -0.967819,-5.07361 -0.09616,-1.75814 -0.299467,-3.78362 -0.451808,-4.50107 -0.27769,-1.30778 0.265026,-2.07639 1.476899,-2.09162 0.896163,-0.012 0.632395,0.81358 -0.363858,1.13781 -0.636289,0.20709 -0.826355,0.52895 -0.620961,1.0515 0.162803,0.41416 0.472235,2.14619 0.687644,3.84892 0.577234,4.56286 1.280514,6.65945 2.23385,6.65945 0.520014,0 0.714171,0.2321 0.553446,0.66159 -0.16655,0.4451 0.143136,0.76218 0.946331,0.96889 1.4601506,0.37581 1.9676956,-0.29814 1.9771056,-2.6253 0.0067,-1.6474 -0.02461,-1.67776 -1.8699306,-1.81495 -1.367425,-0.1017 -1.916485,-0.35456 -2.023289,-0.93197 -0.103953,-0.56195 0.05581,-0.7128 0.549278,-0.51863 0.798647,0.31428 0.953021,-0.51419 0.186354,-1.00007 -0.353037,-0.22375 -0.259122,-0.51065 0.305808,-0.93426 0.729542,-0.54703 0.736594,-0.61134 0.06703,-0.61134 -0.800796,0 -1.01238,-0.68654 -0.342436,-1.11114 0.244901,-0.1552 0.236976,-0.88438 -0.01998,-1.83869 -0.36,-1.337 -0.285931,-1.73547 0.479103,-2.57755 1.0123126,-1.11424 1.1255476,-1.58138 0.440122,-1.81567 -0.964837,-0.3298 -0.976409,-3.16587 -0.01834,-4.49472 0.5484726,-0.76072 0.7398156,-1.38479 0.475872,-1.55207 -0.242794,-0.15382 -0.560457,0.0383 -0.70592,0.42699 -0.274217,0.73278 -1.056702,0.54835 -1.056702,-0.24906 0,-0.24955 0.183068,-0.33772 0.406816,-0.19592 0.223751,0.14183 0.646033,-0.50973 0.938405,-1.44786 0.292375,-0.93814 0.7066506,-1.89967 0.9206126,-2.13674 0.476757,-0.52826 0.516185,-2.06449 0.05298,-2.06449 -0.6453906,0 -1.5266906,-1.96736 -1.7077206,-3.81221 -0.322725,-3.28882 -0.520988,-3.6856 -2.141919,-4.28665 -1.684745,-0.62471 -2.451463,-0.41474 -2.451463,0.6714 0,0.88203 1.11656,2.03692 1.566931,1.62071 0.189669,-0.17528 0.210126,-0.0775 0.04545,0.21712 -0.16466,0.29469 -0.08736,0.67019 0.171785,0.83443 0.294324,0.18653 0.317784,0.49634 0.0625,0.8254 -0.536723,0.69181 -0.377368,2.44183 0.28412,3.12016 0.288234,0.29556 0.517729,0.85386 0.509991,1.24068 -0.01982,0.98997 -1.169745,2.43594 -1.680029,2.11254 -0.234054,-0.14833 -0.545972,0.0521 -0.693155,0.44542 -0.405515,1.08365 -0.354253,1.13421 0.838588,0.8272 1.284842,-0.33067 1.445761,0.28147 0.331857,1.26242 -1.840746,1.62104 -1.90511,1.52357 -1.61087,-2.43953 0.364034,-4.90315 0.251111,-7.03048 -0.459283,-8.65213 -0.191557,-0.43726 -0.218126,-1.32684 -0.05904,-1.97681 0.241389,-0.98626 0.487211,-1.14684 1.485768,-0.97063 0.658086,0.1161 1.532826,0.35919 1.943867,0.54011 0.596981,0.26277 0.805744,0.0103 1.037599,-1.2576 0.159642,-0.87259 0.157368,-2.01587 -0.005,-2.5406 -0.162403,-0.52471 -0.06253,-1.67723 0.221945,-2.56115 0.284477,-0.88391 0.880304,-3.27983 1.324058,-5.32427 2.5679976,-11.83116 6.5256176,-22.0228 9.6904386,-24.9548 1.556484,-1.44196 4.084583,-3.24068 9.107456,-6.47982 4.189157,-2.70147 11.616789,-5.58139 12.671359,-4.91304 0.1885,0.11953 1.07868,-0.0981 1.97815,-0.48348 1.14307,-0.48976 2.4477,-0.62882 4.33361,-0.46191 4.01689,0.3555 8.71834,1.1162 10.22033,1.65367 0.73008,0.26125 1.92476,0.63861 2.65485,0.83857 1.12013,0.30678 1.16741,0.37081 0.30276,0.41 -0.56356,0.0256 -1.45957,-0.19862 -1.99114,-0.49815 -1.14625,-0.64588 -4.60418,-1.22484 -9.04963,-1.51513 -2.90528,-0.18974 -3.39479,-0.0943 -5.06773,0.98871 -1.24722,0.80738 -1.90967,1.02069 -2.02906,0.65341 -0.13245,-0.40751 -0.36136,-0.38704 -0.90571,0.0811 -0.99206,0.85312 -4.52136,2.18483 -4.99488,1.88474 -0.21081,-0.13359 -1.162581,0.20622 -2.115054,0.75516 -0.952487,0.54894 -2.123702,0.89297 -2.602731,0.76452 -0.597731,-0.16034 -1.435997,0.31224 -2.67225,1.50633 -0.990717,0.95695 -2.656044,2.18367 -3.700712,2.72607 -4.516631,2.34503 -6.531227,4.08671 -8.277539,7.15619 -2.174407,3.82193 -3.88223,8.03731 -4.89698,12.08708 -0.437715,1.74689 -1.033672,3.7887 -1.324348,4.53736 -0.626923,1.6147 -1.7782956,6.9243 -2.0908246,9.6419 -0.240535,2.09158 0.468813,2.69464 0.933996,0.79404 0.200541,-0.81935 0.5752126,-1.13435 1.3492816,-1.13435 1.233699,0 1.750069,-0.59967 1.953518,-2.26867 0.03042,-0.24957 0.353982,-0.45374 0.719024,-0.45374 0.607791,0 0.866812,0.55407 0.705148,1.50836 -0.03485,0.20572 0.131932,0.25027 0.370612,0.099 0.640384,-0.40585 -0.132065,-2.20901 -1.181173,-2.75728 -0.889526,-0.46486 -0.888042,-0.48122 0.156783,-1.72681 0.691664,-0.82458 1.054813,-1.02224 1.054813,-0.57413 0,0.37583 -0.32424,0.86942 -0.720536,1.09683 -0.492627,0.28272 -0.562605,0.51358 -0.221237,0.72994 0.274614,0.17404 0.499298,0.0784 0.499298,-0.21262 0,-0.29098 0.290892,-0.41459 0.646429,-0.27469 0.515883,0.20299 0.611282,-0.10787 0.472393,-1.53954 -0.09573,-0.98664 1.83e-4,-1.7939 0.213117,-1.7939 0.212934,0 0.307831,-0.42237 0.210882,-0.93859 -0.111697,-0.59473 0.0192,-0.86486 0.357263,-0.73732 0.293444,0.11061 0.454035,0.48202 0.356869,0.82516 -0.512977,1.81154 -0.573694,3.2279 -0.126213,2.94431 0.263848,-0.1672 0.718635,0.16103 1.01064,0.72959 0.292004,0.56849 0.73352,1.16885 0.981144,1.33415 0.288118,0.19232 0.108937,1.17257 -0.497633,2.72241 -0.709301,1.81234 -0.922808,2.09242 -0.848325,1.11281 0.0715,-0.94025 -0.116295,-1.34406 -0.666501,-1.43324 -0.560778,-0.0909 -0.743107,0.15983 -0.680466,0.93605 0.04706,0.58314 0.250427,0.95576 0.451915,0.82806 0.437684,-0.27738 -0.05711,2.05123 -0.641718,3.02003 -0.286757,0.4752 -0.3408,0.26981 -0.179087,-0.68061 0.127383,-0.74866 0.120074,-1.09587 -0.01623,-0.77154 -0.196688,0.46792 -0.468773,0.44123 -1.317837,-0.12931 -0.930823,-0.62543 -1.102472,-0.63206 -1.319863,-0.0511 -0.137434,0.36728 -0.51681,0.56274 -0.84305,0.43436 -0.326238,-0.12845 -0.805827,0.17408 -1.065753,0.67211 -0.549118,1.05215 -0.138655,3.81973 0.505912,3.41123 0.272485,-0.17269 0.32552,0.23916 0.141465,1.09852 -0.180424,0.84236 -0.101662,1.49696 0.203361,1.69026 0.66658,0.42245 0.753013,0.2772 1.006112,-1.691 0.143671,-1.11728 0.0096,-1.86543 -0.396239,-2.21081 -0.82424,-0.70146 -0.772393,-1.16568 0.160931,-1.44086 0.425882,-0.12554 1.089553,-0.36233 1.474821,-0.52614 0.569778,-0.24226 0.663826,-0.0417 0.504007,1.07495 -0.164845,1.15169 -0.01037,1.44533 0.958797,1.82321 0.635403,0.24772 1.155278,0.56961 1.155278,0.71529 0,0.14559 -0.189122,0.14508 -0.420275,-10e-4 -0.23115,-0.14645 -0.629379,0.13427 -0.884953,0.624 -0.530801,1.01704 -0.632915,2.33809 -0.126044,1.63062 0.511463,-0.71388 1.533758,-0.78546 1.962269,-0.13737 0.283065,0.42812 0.355261,0.3551 0.261787,-0.2648 -0.167244,-1.10909 1.189211,-1.35129 1.953361,-0.34878 0.511651,0.67124 0.490215,0.68486 -0.201906,0.12827 -0.461295,-0.37097 -0.774334,-0.42767 -0.774334,-0.14028 0,0.93368 1.025965,1.11896 1.615792,0.29181 0.328124,-0.46016 0.599639,-0.6445 0.603365,-0.40963 0.0037,0.23474 0.199792,0.12056 0.435701,-0.2537 0.355915,-0.56475 0.431752,-0.52613 0.445539,0.22686 0.01539,0.83741 0.08736,0.81989 0.932916,-0.22686 0.503966,-0.62388 0.81808,-0.81341 0.698027,-0.42118 -0.281133,0.91854 1.089307,1.79772 2.297296,1.47379 0.547328,-0.14679 0.935932,-0.0369 0.935932,0.26451 0,0.34767 0.801892,0.44863 2.463256,0.31018 2.016906,-0.16807 2.61825,-0.0463 3.31858,0.67178 0.470416,0.48238 1.15399,0.87706 1.51903,0.87706 0.375928,0 0.663707,0.40674 0.663707,0.93807 0,0.73156 -0.194796,0.87465 -0.884941,0.65001 -0.50766,-0.16514 -0.884958,-0.0815 -0.884958,0.19631 0,0.26636 0.206117,0.4843 0.458039,0.4843 0.515787,0 -0.299668,1.84745 -1.031238,2.33633 -0.619389,0.41391 -0.03429,1.74731 0.766655,1.74731 0.407419,0 0.565623,-0.26215 0.409694,-0.67884 -0.198408,-0.53018 0.02257,-0.63371 1.009447,-0.47273 0.694932,0.11336 2.015706,0.32705 2.935086,0.47489 0.9712,0.15623 1.55498,0.46225 1.39328,0.73053 -0.15302,0.25396 -0.53631,0.36021 -0.85166,0.23611 -0.70702,-0.2782 -1.19227,1.85653 -0.48962,2.15393 0.26884,0.1137 0.0408,0.22299 -0.50678,0.2427 -1.04564,0.0376 -1.365682,0.74117 -0.47554,1.04542 0.83459,0.28527 0.83805,4.49128 0.005,5.79645 -2.02296,3.16853 -2.475632,4.85303 -2.72013,10.12239 -0.01003,0.2019 -0.220048,0.23842 -0.468157,0.0811 -0.701251,-0.44444 -3.531154,0.67905 -3.531154,1.40186 0,0.38664 0.487909,0.67022 1.216803,0.70722 1.178004,0.0599 1.181985,0.0684 0.124758,0.2714 l -1.092046,0.2096 1.052711,0.57771 1.052696,0.57774 -1.288079,0.84191 c -1.731067,1.13144 -1.942971,1.50405 -1.910093,3.35842 0.01506,0.87345 0.131448,1.32433 0.257493,1.00197 0.18354,-0.4691 0.361846,-0.47333 0.893169,-0.0211 0.365107,0.31071 1.09243,0.63058 1.61626,0.71079 1.010418,0.15468 2.47478,1.7713 2.491235,2.75022 0.0084,0.47758 0.12275,0.47758 0.62459,0 0.392993,-0.37401 0.451706,-0.68995 0.162722,-0.87578 -0.248597,-0.15982 -0.0029,-0.43695 0.546676,-0.61571 0.646436,-0.21039 1.126746,-0.11251 1.361826,0.27756 0.19975,0.33141 0.50502,0.45714 0.67839,0.27935 0.17336,-0.17777 0.56469,-0.11095 0.86962,0.14868 0.32681,0.27815 0.65749,0.3008 0.80551,0.0552 0.14348,-0.23793 1.05357,-0.26614 2.12208,-0.0659 1.02903,0.19296 2.51651,0.24342 3.30549,0.11215 0.97247,-0.16188 1.66157,-0.005 2.1395,0.48424 0.64503,0.66145 0.64284,0.82026 -0.0259,1.86674 -0.5604,0.87705 -0.97749,1.08028 -1.78858,0.87152 -0.6388,-0.16445 -1.05773,-0.073 -1.05773,0.23069 0,0.27662 0.37408,0.50293 0.83128,0.50293 0.94275,0 1.94529,2.04871 1.81156,3.70193 -0.0473,0.58427 -0.0609,1.36859 -0.0301,1.74291 0.0489,0.59628 0.10685,0.59786 0.46765,0.012 0.36263,-0.58803 0.44174,-0.58803 0.66149,0 0.28055,0.75075 0.0596,2.99507 -0.4092,4.15678 -0.17013,0.42156 -0.0997,1.13619 0.1567,1.58808 0.25634,0.45188 0.47211,0.58797 0.47951,0.30241 0.015,-0.56203 2.22502,-0.60971 2.22552,-0.048 4.5e-4,0.56234 1.22215,0.38375 1.86183,-0.2722 0.50141,-0.51414 0.68687,-0.51414 1.15524,0 0.30686,0.33687 0.44269,0.6125 0.30183,0.6125 -0.14081,0 -0.01,0.27027 0.29097,0.6006 0.30092,0.33031 1.05546,0.522 1.67673,0.42592 0.83358,-0.12896 0.66578,0.0518 -0.64028,0.68926 -1.01839,0.4971 -1.88563,0.6838 -2.04247,0.43972 -0.16802,-0.26151 -0.59226,-0.2547 -1.10618,0.0177 -1.08354,0.57445 -4.80689,1.54481 -6.91769,1.80284 -1.17082,0.14319 -1.65928,0.0285 -1.65928,-0.3893 0,-0.46057 -0.11807,-0.47115 -0.53097,-0.0477 -0.29204,0.29947 -1.12832,0.54448 -1.8584,0.54448 -0.98664,0 -1.19909,0.13171 -0.82751,0.51264 0.54204,0.55585 1.77482,0.811 5.20802,1.07787 1.21682,0.0947 2.31194,0.18454 2.43362,0.19991 0.12174,0.0154 -0.42588,0.43251 -1.2168,0.92702 -0.79094,0.49451 -1.43805,1.04505 -1.43805,1.2234 0,0.17836 0.23894,0.0792 0.53096,-0.22019 0.76765,-0.78717 1.44942,-0.67067 0.79646,0.13617 -0.45113,0.5574 -0.4209,0.68061 0.16707,0.68061 0.39483,0 0.71788,0.20417 0.71788,0.45373 0,0.24955 0.74668,0.47741 1.65928,0.50636 0.93719,0.0297 1.27416,0.14765 0.77435,0.27092 -0.48674,0.12004 -1.07412,0.40262 -1.30532,0.62796 -0.58587,0.57104 -2.62103,0.51243 -3.2109,-0.0924 -0.35791,-0.36703 -0.47102,-0.28064 -0.42035,0.32099 0.088,1.04505 -2.04976,2.15526 -4.00495,2.07988 -1.40526,-0.0542 -1.66964,0.24302 -1.47952,1.66324 0.0451,0.337 -0.13045,0.47808 -0.39004,0.31354 -0.25965,-0.16446 -0.47208,-0.79757 -0.47208,-1.40672 0,-0.82542 -0.23859,-1.10756 -0.93655,-1.10756 -0.73673,0 -0.88417,0.20548 -0.69097,0.96302 l 0.24558,0.96302 -0.89793,-0.98835 c -1.07595,-1.18426 -2.022919,-1.07817 -2.932227,0.32846 -0.65909,1.01957 -0.64541,1.03449 0.721469,0.78756 0.793832,-0.14337 1.39329,-0.0574 1.39329,0.19985 0,0.24835 0.522814,0.58613 1.161788,0.75058 0.97402,0.25069 1.04553,0.36572 0.44248,0.71179 -0.992306,0.56946 -0.90551,1.24014 0.12476,0.96387 0.46421,-0.1245 0.93568,-0.58573 1.04771,-1.02499 0.14115,-0.55331 0.59544,-0.7766 1.47895,-0.72683 1.15554,0.065 1.27826,0.22872 1.30692,1.74269 0.0296,1.56047 0.56494,2.9292 0.68738,1.75725 0.0304,-0.29114 0.0803,-0.78459 0.11071,-1.09653 0.0868,-0.89058 2.04646,-1.00378 2.04646,-0.11815 0,0.40641 0.19836,0.61321 0.44082,0.45956 0.79187,-0.50185 2.24523,-0.64674 1.97405,-0.19679 -0.145,0.24057 -0.449,0.31994 -0.67554,0.17636 -0.51568,-0.32683 -0.64643,0.59719 -0.43611,3.08211 0.083,0.97916 0.10201,0.98379 0.46669,0.11335 0.20915,-0.49911 0.39427,-0.65223 0.41137,-0.34029 0.0449,0.81736 0.91605,0.70104 0.91605,-0.12227 0,-0.4834 0.3229,-0.62944 1.08024,-0.48861 0.62264,0.11576 1.30898,-0.0818 1.62023,-0.46635 0.43434,-0.53667 0.61124,-0.55204 0.90413,-0.0786 0.27683,0.4475 0.36577,0.41158 0.37092,-0.14988 0.003,-0.40617 0.30543,-0.99266 0.67049,-1.30333 0.45856,-0.39026 0.66371,-0.40743 0.66371,-0.0556 0,0.86991 0.76912,0.55877 1.01649,-0.41121 0.26347,-1.0332 1.26824,-1.0255 1.70026,0.0137 0.21435,0.51526 0.39404,0.39298 0.73972,-0.50336 0.30693,-0.7959 0.90303,-1.27552 1.81864,-1.4633 1.02813,-0.21086 1.36966,-0.53241 1.39314,-1.3116 0.0283,-0.94054 0.0607,-0.95457 0.36508,-0.15794 0.29888,0.78231 0.36398,0.79425 0.61874,0.11336 0.15653,-0.4185 0.58964,-0.76087 0.96232,-0.76087 0.37268,0 0.67761,-0.18038 0.67761,-0.40083 0,-0.22044 0.39823,-0.5076 0.88495,-0.63812 1.06063,-0.28442 1.14727,-1.34967 0.18963,-2.33168 -0.38241,-0.39214 -0.49372,-0.713 -0.24735,-0.713 0.24639,0 0.57942,0.2181 0.74008,0.48466 0.16072,0.26657 0.56051,0.37907 0.88853,0.24999 0.35799,-0.14079 0.50937,-0.002 0.37868,0.34717 -0.12225,0.32648 0.0983,0.58188 0.50248,0.58188 0.51596,0 0.66426,-0.30031 0.52289,-1.05871 -0.18796,-1.00827 0.11739,-1.36641 0.67623,-0.79329 0.44643,0.45778 -0.60939,2.92906 -1.11461,2.60887 -0.3002,-0.19027 -0.36971,-0.0206 -0.18916,0.46192 0.34501,0.92193 -1.03361,3.39461 -1.75376,3.14548 -0.28189,-0.0976 -0.6421,0.0377 -0.80043,0.30038 -0.15838,0.26272 -0.0101,0.4777 0.32817,0.4777 0.33884,0 0.61609,0.30625 0.61609,0.68059 0,0.37433 -0.25374,0.68061 -0.56386,0.68061 -0.31012,0 -0.68691,0.20418 -0.83733,0.45373 -0.15402,0.25556 0.20223,0.45375 0.81555,0.45375 0.82483,0 1.21774,-0.35776 1.61958,-1.47465 0.2918,-0.81105 0.62249,-1.23187 0.73486,-0.93514 0.32744,0.86449 -1.19671,2.86351 -2.18327,2.86351 -0.85947,0 -0.86617,0.0413 -0.14014,0.86402 1.02666,1.1633 0.41774,2.10549 -2.61486,4.04592 -2.35137,1.50456 -3.58491,2.62711 -3.82865,3.48418 -0.25589,0.89974 -6.49281,5.53076 -7.15715,5.31432 -0.20062,-0.0653 -0.24988,0.0719 -0.10954,0.30472 0.22382,0.3714 -2.41498,2.34855 -7.03441,5.27064 -0.78904,0.4991 -1.76198,1.18769 -2.16209,1.5302 -0.87126,0.74581 -0.95961,2.92537 -0.14666,3.61725 0.31947,0.27188 1.2118,1.77721 1.98296,3.34515 0.77115,1.56794 2.5009,4.04813 3.8439,5.51151 1.34299,1.4634 2.44182,2.93356 2.44182,3.26703 0,0.33349 0.34844,0.81447 0.77433,1.06882 0.73575,0.43945 0.73541,0.46318 -0.007,0.47628 -0.42946,0.007 -1.16255,-0.64977 -1.6291,-1.46084 -0.99457,-1.72897 -3.14192,-3.96895 -3.80556,-3.96967 -0.69722,-9.1e-4 -3.60144,3.25714 -3.94318,4.42342 -0.29338,1.00123 -0.43043,1.0209 -7.112151,1.0209 -6.609868,0 -6.829146,-0.0305 -7.354633,-1.0209 -0.297896,-0.5615 -0.583516,-1.80005 -0.634707,-2.75235 -0.05118,-0.95229 -0.207721,-1.84897 -0.347829,-1.99264 -0.386395,-0.39624 -1.991198,1.67112 -2.9789,3.83751 -0.593962,1.30277 -1.159574,1.92838 -1.743438,1.92838 -0.475336,0 -0.864248,-0.13239 -0.864248,-0.29428 0,-0.16188 0.911717,-2.00941 2.026039,-4.10568 2.431181,-4.57355 6.137052,-8.79041 8.954211,-10.18889 2.281255,-1.13244 3.631192,-1.39211 3.351492,-0.6447 -0.244431,0.65317 1.129589,1.49034 3.053495,1.86046 1.295629,0.24924 1.647789,0.1425 2.045629,-0.61974 1.0702,-2.05059 0.68129,-2.4908 -1.923121,-2.17692 -2.165869,0.26103 -2.432208,0.19759 -2.69184,-0.64129 -0.158539,-0.51204 -0.819084,-1.51282 -1.46799,-2.22398 -0.648889,-0.71115 -2.07584,-2.34288 -3.170962,-3.62608 -1.095123,-1.28317 -2.737823,-3.12507 -3.650425,-4.09309 -0.91261,-0.96801 -1.660157,-1.82709 -1.661217,-1.90905 -0.0011,-0.082 -0.510449,-1.57828 -1.13197,-3.32518 -1.769747,-4.97411 -2.392475,-7.53038 -2.431761,-9.98218 -0.01998,-1.24777 -0.181705,-2.64765 -0.359363,-3.11084 -0.942498,-2.45733 -2.56702,6.91784 -2.340169,13.50516 0.04218,1.22491 -0.23858,3.51619 -0.623914,5.09177 -0.385333,1.57559 -0.598975,3.03333 -0.474758,3.23943 0.124223,0.20609 0.02109,0.67126 -0.22917,1.03368 -0.373482,0.54085 -0.411358,0.51924 -0.211367,-0.12057 0.134005,-0.42872 0.0679,-0.89087 -0.146899,-1.02702 -0.224952,-0.14251 -0.219967,-0.85745 0.01171,-1.68598 0.51534,-1.84261 0.148037,-2.26783 -0.466977,-0.54061 -1.157314,3.25023 -1.603354,4.16712 -3.013027,6.19381 -0.834079,1.19913 -1.3904456,2.46113 -1.2502236,2.83584 0.152083,0.40638 -0.0026,0.67518 -0.388737,0.67518 -0.352769,0 -0.754075,0.56149 -0.891792,1.24778 -0.137717,0.68627 -1.029329,2.91831 -1.981358,4.96009 -0.95203,2.04179 -1.958715,5.05347 -2.237077,6.69261 l -0.506114,2.98029 H 1.9482474 0.22376439 Z M 42.838021,274.00753 c 0.27801,-1.09016 -0.0761,-1.12443 -0.84767,-0.082 -0.76899,1.03877 -0.76736,1.50574 0.003,1.20215 0.34106,-0.13428 0.72064,-0.63826 0.84353,-1.12011 z m -3.5654,0.18463 c -0.3042,-0.12588 -0.80198,-0.12588 -1.10617,0 -0.30422,0.12587 -0.0554,0.22886 0.55308,0.22886 0.60841,0 0.8573,-0.1029 0.55309,-0.22886 z m -2.72859,-0.79603 c -0.0203,-0.1456 -0.18621,-0.28205 -0.36874,-0.30326 -0.18252,-0.0213 -0.63052,-0.27293 -0.995565,-0.55936 -0.365036,-0.28641 -0.283299,-0.0636 0.18165,0.4951 0.761345,0.91491 1.281425,1.07653 1.182655,0.36752 z m 2.38061,-1.94841 c 0.22105,-0.90318 0.0938,-1.38541 -0.47908,-1.81494 -0.70205,-0.52643 -0.64989,-0.58565 0.52125,-0.59189 1.00965,-0.005 1.15261,-0.10719 0.63767,-0.45376 -0.55367,-0.37271 -0.49864,-0.49319 0.33186,-0.72659 0.54756,-0.15382 0.99558,-0.45373 0.99558,-0.66634 0,-0.21262 -0.29867,-0.26905 -0.66372,-0.12536 -0.41536,0.16343 -0.66372,-0.003 -0.66372,-0.44741 0,-0.45114 -0.52249,-0.78972 -1.43803,-0.93191 -1.94719,-0.30238 -2.995823,-0.19996 -2.71545,0.26523 0.12776,0.21203 0.39469,0.28263 0.59309,0.15692 0.4,-0.2535 1.348,3.17603 1.348,4.87649 0,1.99566 1.0775,2.31883 1.53255,0.45965 z m 8.42318,0.77626 c 0.15035,-0.24956 -0.12476,-0.45374 -0.6115,-0.45374 -0.48672,0 -1.008,0.20418 -1.1584,0.45374 -0.15035,0.24955 0.12476,0.45374 0.61148,0.45374 0.48672,0 1.00801,-0.20419 1.15842,-0.45374 z m -1.23522,-1.98199 c 0.55769,-0.49724 1.01399,-1.09998 1.01399,-1.3394 0,-0.23944 0.29013,-0.66202 0.64473,-0.93908 0.70731,-0.55265 1.33312,-3.18466 0.65502,-2.75492 -0.22815,0.14457 -0.41481,0.55354 -0.41481,0.90877 0,0.35521 -0.89602,1.60477 -1.99114,2.77681 -2.72596,2.91737 -2.66515,3.80633 0.0922,1.34782 z m 2.62586,0.39391 c 0.71736,-0.73563 0.49019,-0.8203 -1.05878,-0.39461 -0.54757,0.15039 -0.99558,0.45395 -0.99558,0.6744 0,0.64315 1.33109,0.46189 2.05436,-0.27979 z m -11.95936,-1.21469 c -0.3236,-1.6591 -0.50074,-1.92357 -1.05368,-1.57314 -0.654316,0.41467 -0.08,3.01469 0.66603,3.01469 0.51539,0 0.60432,-0.33061 0.38765,-1.44155 z m 15.15911,-0.82712 c 0.59433,0 3.41738,-2.84503 3.74273,-3.77188 0.25518,-0.72688 0.13061,-0.70711 -1.07048,0.16994 -0.74758,0.54588 -1.45745,1.25494 -1.57748,1.5757 -0.12007,0.32075 -0.66749,0.69881 -1.21655,0.84013 -0.54909,0.14131 -1.23157,0.78188 -1.51666,1.42349 -0.7152,1.60967 -0.65568,1.71846 0.36661,0.67014 0.48674,-0.49911 1.05906,-0.90747 1.27183,-0.90747 z m -18.307149,0 c 0.150345,-0.24957 0.06255,-0.45374 -0.19513,-0.45374 -0.257726,0 -0.468593,0.20417 -0.468593,0.45374 0,0.24956 0.0878,0.45374 0.195131,0.45374 0.107365,0 0.318181,-0.20418 0.468592,-0.45374 z m 16.874309,-3.03878 c -0.18127,-0.18587 -0.51481,-0.0376 -0.74122,0.3295 -0.68127,1.10465 -0.47692,1.59557 0.32282,0.7755 0.41139,-0.42186 0.59966,-0.91912 0.4184,-1.105 z m 8.82812,-2.29957 c 0.68231,-0.47258 1.10135,-2.36386 0.4642,-2.09507 -0.87464,0.36898 -2.1686,2.44323 -1.51923,2.43538 0.31555,-0.003 0.79032,-0.15692 1.05503,-0.34031 z m -2.47243,-1.01396 c 0.48672,-0.49911 0.87148,-1.1627 0.85501,-1.47465 -0.0168,-0.31193 -0.25317,-0.0914 -0.52599,0.49028 -0.35425,0.75514 -0.77684,1.00238 -1.47833,0.86486 -0.68819,-0.13497 -0.91396,-0.0103 -0.75409,0.41722 0.31752,0.84852 0.86987,0.76212 1.9034,-0.29771 z m 4.96802,-1.43936 c -0.65687,-0.67359 -0.83339,-0.49871 -1.22471,1.21342 l -0.31093,1.36029 1.03208,-1.01588 c 0.80006,-0.78749 0.91327,-1.13769 0.50356,-1.55783 z m -2.34204,-0.56675 c 0.42805,-0.52893 0.35911,-0.60125 -0.38332,-0.40215 -0.49791,0.13342 -0.79622,0.42372 -0.66291,0.64491 0.32424,0.53796 0.43518,0.51222 1.04623,-0.24276 z m -19.76166,-2.35274 c 0.14767,-0.15142 0.0372,-0.52907 -0.24552,-0.83934 -0.40941,-0.44943 -0.62895,-0.44619 -1.0796,0.0154 -0.31112,0.31906 -0.56568,0.69677 -0.56568,0.83938 0,0.34612 1.55047,0.33304 1.8908,-0.0154 z m -7.200512,-2.04702 c 0,-0.24955 -0.199127,-0.32754 -0.442488,-0.17331 -0.24336,0.15418 -0.44247,0.4846 -0.44247,0.73416 0,0.24955 0.19911,0.32755 0.44247,0.17332 0.243361,-0.15417 0.442488,-0.48462 0.442488,-0.73417 z m -1.592128,-0.51765 c 0.605943,-0.62137 0.453324,-1.69748 -0.240769,-1.69748 -0.237441,0 -0.308649,0.2042 -0.158205,0.45376 0.150345,0.24955 0.05385,0.45372 -0.214528,0.45372 -0.26838,0 -0.429477,-0.35547 -0.357967,-0.78992 0.07676,-0.46614 -0.278062,-0.9752 -0.865559,-1.24194 -0.547561,-0.24861 -1.011287,-0.7609 -1.030504,-1.13845 -0.02023,-0.3973 -0.122917,-0.46613 -0.243745,-0.16344 -0.265652,0.66532 1.561576,4.69496 2.12892,4.69496 0.233945,0 0.676032,-0.25705 0.982407,-0.57121 z m 28.88544,-0.42133 c -0.14132,-0.36196 -0.24611,-0.25446 -0.26733,0.27413 -0.0192,0.4783 0.0853,0.74629 0.23239,0.59552 0.147,-0.15074 0.16272,-0.54212 0.0349,-0.86965 z m -32.737568,-0.77011 c 0.286458,-0.47037 0.445899,-1.23604 0.354338,-1.70152 -0.5981,-3.0402 -0.72846,-3.34232 -1.445045,-3.34882 -0.655177,-0.005 -0.669944,-0.0695 -0.102181,-0.43989 0.54706,-0.35686 0.566509,-0.59379 0.110542,-1.34811 -0.304201,-0.50334 -0.553096,-1.24122 -0.553096,-1.63972 0,-0.39851 -0.248896,-0.63453 -0.553097,-0.52449 -0.304201,0.1101 -0.525436,0.53541 -0.491638,0.94527 0.03646,0.44216 -0.267242,0.7452 -0.746838,0.7452 -0.535517,0 -0.785785,0.30625 -0.74162,0.90748 0.03666,0.4991 0.309542,0.90748 0.606393,0.90748 0.296859,0 0.666131,0.40835 0.820606,0.90746 0.157535,0.50898 0.669493,0.90747 1.165829,0.90747 0.683591,0 0.821042,0.2065 0.604088,0.90749 -0.18309,0.59153 -0.07793,0.91227 0.302043,0.92126 0.341243,0.009 0.239881,0.21815 -0.244515,0.50676 -0.668088,0.39801 -0.710698,0.56877 -0.221236,0.88672 0.441635,0.28689 0.456051,0.39565 0.05302,0.40073 -0.3042,0.003 -0.553097,0.21112 -0.553097,0.46067 0,0.76834 1.085206,0.50192 1.635376,-0.40144 z m 14.293778,-2.32097 c 0,-0.24956 -0.19912,-0.45373 -0.44247,-0.45373 -0.24337,0 -0.44248,0.20417 -0.44248,0.45373 0,0.24955 0.19911,0.45373 0.44248,0.45373 0.24335,0 0.44247,-0.20418 0.44247,-0.45373 z m -14.102679,-5.66037 c 0.01705,-0.76574 -0.819903,-0.76389 -1.106677,0.002 -0.189177,0.5055 -0.06154,0.68733 0.411331,0.58634 0.377031,-0.0806 0.689945,-0.34547 0.695346,-0.5888 z m 9.677909,-1.97456 c 0,-0.20634 -0.59734,-0.28526 -1.32742,-0.17537 -0.730084,0.10992 -1.327432,0.2787 -1.327432,0.37515 0,0.0964 0.597348,0.17537 1.327432,0.17537 0.73008,0 1.32742,-0.16875 1.32742,-0.37515 z M 20.383766,242.4521 c 0.990081,0.38959 1.526253,-1.10693 0.80244,-2.23972 -0.345552,-0.54082 -0.502899,-1.31832 -0.349661,-1.72783 0.314295,-0.83987 0.882067,-0.96784 1.290127,-0.29079 0.150411,0.24955 0.01288,0.45687 -0.305743,0.4607 -0.42577,0.005 -0.406062,0.11918 0.0744,0.43076 0.448721,0.29099 0.906158,0.18946 1.459281,-0.32383 0.443107,-0.41121 1.139105,-0.79786 1.546641,-0.8592 0.941935,-0.14182 1.856143,-1.39853 2.173455,-2.98783 0.135962,-0.68068 0.521773,-1.47138 0.857481,-1.75708 0.335708,-0.28571 0.610391,-0.77574 0.610391,-1.08895 0,-0.31323 0.286842,-0.8136 0.637417,-1.11196 0.350575,-0.29837 0.517342,-0.86335 0.370576,-1.25552 -0.157702,-0.42158 0.0791,-0.97513 0.579404,-1.35423 0.796841,-0.60379 0.801039,-0.66746 0.07191,-1.09128 -0.425882,-0.24753 -0.774333,-0.73903 -0.774333,-1.09218 0,-0.35315 -0.425897,-0.87582 -0.946416,-1.16149 -0.8187,-0.44931 -1.08126,-0.3443 -1.945597,0.77807 -0.549535,0.71363 -1.51112,1.90326 -2.136831,2.64365 -0.62571,0.7404 -1.259742,1.91614 -1.408949,2.61276 -0.149206,0.69663 -0.62992,1.46341 -1.068251,1.70396 -0.438332,0.24057 -0.897164,1.00455 -1.019629,1.69775 -0.348048,1.97007 -1.364649,4.38381 -2.093762,4.97127 -0.583549,0.47018 -0.572703,0.57095 0.08979,0.83439 0.599968,0.23856 0.653361,0.46407 0.262026,1.10664 -0.28846,0.47365 -0.342961,1.15985 -0.131932,1.66116 0.34324,0.81541 0.36823,0.81661 0.551008,0.0268 0.111312,-0.481 0.448202,-0.72631 0.804774,-0.586 z m -3.796351,-1.77305 c -0.538032,-0.66478 -1.319125,-0.51696 -1.319125,0.24966 0,0.227 0.298672,0.29519 0.663714,0.1516 0.43788,-0.1723 0.675601,0.0256 0.698648,0.5814 0.02089,0.50384 0.126647,0.60844 0.263069,0.26017 0.125476,-0.32033 -0.01237,-0.87959 -0.306306,-1.24278 z m 29.414076,-0.18526 c 0.13998,-0.23231 0.0522,-0.55064 -0.19512,-0.70738 -0.24733,-0.15674 -0.4497,0.0333 -0.4497,0.42238 0,0.79701 0.26551,0.91435 0.64482,0.285 z m -16.537092,-2.23514 c 0.04332,-1.40861 0.195364,-2.48856 0.624239,-4.43379 0.208993,-0.94787 0.129775,-1.53578 -0.238595,-1.76919 -0.413104,-0.26182 -0.475382,-0.0383 -0.248077,0.89047 0.177655,0.72584 0.133455,1.13227 -0.106528,0.98014 -0.225534,-0.14286 -0.602983,-0.007 -0.838768,0.30229 -0.646732,0.84807 -0.966987,2.57071 -0.529482,2.848 0.212538,0.13478 0.267809,0.85319 0.12275,1.59666 -0.218627,1.12099 -0.140645,1.30336 0.45697,1.06822 0.39822,-0.15674 0.737106,-0.82011 0.757491,-1.4828 z m -13.753632,0.79404 c 0,-0.27626 0.296282,-0.38571 0.658406,-0.24319 0.943526,0.37127 0.617252,-0.7714 -0.334441,-1.17128 -0.54309,-0.22819 -0.75104,-0.74837 -0.680216,-1.7015 0.05611,-0.75507 0.280075,-1.37286 0.497709,-1.37286 0.217634,0 0.252626,-0.35731 0.07777,-0.79404 -0.174865,-0.43671 -0.364118,-1.30447 -0.420559,-1.92838 -0.152869,-1.68981 -0.20087,-1.81493 -0.696219,-1.81493 -0.28764,0 -0.384262,1.21035 -0.262607,3.28958 0.10586,1.80929 0.211089,3.95318 0.233843,4.76425 0.02274,0.81105 0.240485,1.47463 0.483845,1.47463 0.243362,0 0.442477,-0.22602 0.442476,-0.50228 z m 16.356045,-2.64404 c 0.251939,-0.4827 0.457305,-1.24839 0.456402,-1.70152 -0.0012,-0.57619 -0.267193,-0.37727 -0.884959,0.66175 -1.001187,1.68388 -1.056776,1.9174 -0.456384,1.9174 0.234798,0 0.633017,-0.39492 0.884941,-0.87763 z m -12.41835,-7.90841 c -0.142669,-1.22057 0.0992,-1.64988 0.929542,-1.64988 1.034571,0 1.185672,-0.81762 0.221239,-1.19712 -0.915647,-0.36033 -0.836062,-1.07568 0.110626,-0.99432 1.595968,0.13718 2.323,-0.0972 2.323,-0.7492 0,-0.36958 0.49779,-0.80007 1.106192,-0.95666 0.634557,-0.16326 1.106193,-0.61195 1.106193,-1.05225 0,-0.42214 0.185698,-0.9615 0.412686,-1.19858 0.256037,-0.26743 0.177303,-0.75801 -0.207405,-1.29241 -0.539132,-0.7489 -0.723007,-0.77955 -1.40827,-0.23469 -0.645042,0.51288 -0.631965,0.43917 0.07191,-0.40593 0.731805,-0.87854 0.748311,-0.98861 0.11071,-0.73768 -0.442169,0.17399 -0.749514,0.0765 -0.749514,-0.23791 0,-0.34187 -0.356847,-0.42186 -0.995577,-0.22316 -1.674893,0.52103 -1.884098,0.46525 -1.782778,-0.47542 0.05377,-0.49912 -0.01305,-0.65098 -0.148404,-0.33747 -0.135394,0.31349 -0.428264,0.45457 -0.650841,0.31352 -0.222576,-0.14114 -0.404683,0.38016 -0.404683,1.15828 0,0.82765 -0.18363,1.2984 -0.442478,1.13434 -0.243361,-0.15416 -0.442476,-0.0641 -0.442476,0.2001 0,0.26428 0.448008,0.50831 0.995573,0.5423 0.985024,0.0611 0.984551,0.064 -0.04458,0.26443 -0.830635,0.16171 -0.998541,0.42584 -0.83356,1.31086 0.131865,0.70738 -0.04451,1.25233 -0.487611,1.50662 -0.566994,0.32536 -0.591949,0.52471 -0.13618,1.08786 0.469411,0.58 0.395829,0.71306 -0.463378,0.83794 -0.742168,0.10786 -1.021401,0.44546 -1.021401,1.23484 0,0.66507 -0.343181,1.22456 -0.884953,1.44275 -0.681786,0.27458 -0.504018,0.36371 0.774334,0.38827 1.15006,0.0221 1.659287,0.2364 1.659287,0.69826 0,0.40937 0.258999,0.56444 0.671549,0.40211 0.369353,-0.14543 0.644433,-0.49626 0.611288,-0.7798 z m -5.043887,-5.27978 c -0.199324,-0.644 -0.0795,-0.90748 0.412659,-0.90748 0.381443,0 0.693533,0.23822 0.693533,0.52938 0,0.29114 0.12653,0.39961 0.281174,0.24101 0.154643,-0.15862 -0.06917,-0.83662 -0.497349,-1.50673 -0.698514,-1.0932 -0.822465,-1.13791 -1.206051,-0.43504 -0.410961,0.75304 -0.146013,2.98634 0.354282,2.98634 0.133437,0 0.116229,-0.40837 -0.03825,-0.90748 z m 2.212382,-3.17615 c 0.346096,-0.57425 -0.239658,-0.57425 -1.10619,0 -0.571984,0.37905 -0.560305,0.44081 0.08451,0.4468 0.411521,0.003 0.871279,-0.19724 1.021687,-0.4468 z m 11.195222,-1.79457 c 1.469931,-1.50736 1.381881,-1.94696 -0.309619,-1.54577 -1.547945,0.36715 -2.402617,1.47974 -1.753159,2.28222 0.635309,0.78498 0.54905,0.81577 2.062778,-0.73645 z m -14.234908,-1.04128 c -0.146732,-0.5615 -0.269521,-1.27614 -0.272844,-1.58808 -0.0033,-0.31193 -0.165178,-0.56716 -0.359669,-0.56716 -0.194494,0 -0.272267,0.71463 -0.172828,1.58806 0.09944,0.87345 0.38135,1.58808 0.626471,1.58808 0.246247,0 0.326288,-0.45681 0.17887,-1.0209 z m 10.433821,-0.87863 c 0.928139,-0.34474 1.083567,-0.57273 0.687136,-1.00792 -0.281774,-0.30932 -0.984814,-0.46978 -1.56231,-0.35659 -0.751652,0.14732 -0.914246,0.34503 -0.572249,0.69572 0.341996,0.35071 0.19365,0.66515 -0.522108,1.10672 -1.056508,0.65177 -0.82679,0.6007 1.969531,-0.43793 z m 4.33149,-0.82289 c -0.442487,-0.29321 -0.479345,-0.44215 -0.110542,-0.44678 0.304201,-0.003 0.553097,-0.31321 0.553097,-0.68754 0,-0.80412 -0.04849,-0.81172 -1.519867,-0.23811 -1.878668,0.73245 -1.36524,1.42726 1.298615,1.75744 0.243377,0.0302 0.143822,-0.14302 -0.221235,-0.38501 z M 15.26829,212.78453 c 0,-0.24956 -0.310423,-0.45373 -0.689827,-0.45373 -0.379406,0 -0.56677,0.20417 -0.416364,0.45373 0.150412,0.24955 0.460829,0.45374 0.689828,0.45374 0.229,0 0.416363,-0.20419 0.416363,-0.45374 z m -2.212381,-0.6806 c 0,-0.37433 -0.298672,-0.68061 -0.663714,-0.68061 -0.69096,0 -0.877859,0.53664 -0.368731,1.05871 0.509128,0.52209 1.032445,0.33043 1.032445,-0.3781 z m -0.704003,-1.52123 c 0.128252,-0.2128 -0.05277,-0.7743 -0.402289,-1.24778 -0.60211,-0.8157 -0.636208,-0.79538 -0.649541,0.38689 -0.01354,1.19759 0.564018,1.67026 1.05183,0.86089 z m 9.14014,-1.89775 c 0.874336,-0.47984 1.171806,-1.34526 0.462408,-1.34526 -0.216401,0 -0.863525,0.40159 -1.438048,0.89239 -1.114863,0.95241 -0.475428,1.2492 0.97564,0.45287 z m 5.192136,-4.15841 c 0.883236,-0.90572 0.597849,-1.28225 -0.561341,-0.74065 -0.600775,0.2807 -0.987256,0.68467 -0.858853,0.89773 0.323299,0.53643 0.794734,0.48428 1.420194,-0.15708 z m -5.6021,-1.25536 c 0.574524,-0.49081 0.904625,-0.89919 0.733553,-0.90748 -0.618106,-0.03 -2.565059,1.04701 -2.565059,1.41895 0,0.63422 0.728535,0.43076 1.831506,-0.51147 z m -0.16999,-1.38266 c 0.643041,-0.41858 0.554647,-0.46782 -0.528799,-0.29456 l -1.300905,0.20804 1.079666,-0.89457 c 1.282261,-1.06242 0.751645,-0.92648 -1.240537,0.31784 -0.789388,0.49305 -1.436509,1.03473 -1.438048,1.20373 -0.004,0.44699 2.523834,0.0485 3.428623,-0.54048 z m 14.870119,-0.22053 c 0.15218,-0.4066 0.003,-0.6806 -0.36903,-0.6806 -0.727736,0 -1.220961,0.65105 -0.811404,1.07105 0.466285,0.47815 0.910364,0.33125 1.180434,-0.39045 z m -22.401945,-8.21274 c -0.351748,-0.36071 -1.651786,1.17723 -1.651786,1.95405 0,0.4825 0.299157,0.31939 0.935397,-0.51005 0.514468,-0.67068 0.836844,-1.3205 0.716389,-1.444 z m -7.5919386,-1.88657 c -0.135762,-0.13926 -0.01806,-0.53579 0.261542,-0.88127 0.359599,-0.44431 0.370471,-0.76958 0.03714,-1.11137 -0.333318,-0.3418 -0.622689,-0.19301 -0.988766,0.50842 -0.581405,1.11402 -0.26725,2.50048 0.46187,2.0384 0.261271,-0.16566 0.363962,-0.41497 0.228202,-0.55418 z M 29.640749,191.0185 c 0.283179,-0.46983 -0.740969,-0.77952 -3.421179,-1.03445 -1.885225,-0.17933 -2.116746,0.11986 -0.663707,0.85784 1.269282,0.64462 3.738475,0.75137 4.084886,0.17661 z m 2.441632,-0.46704 c 0,-0.24955 -0.187353,-0.45373 -0.416348,-0.45373 -0.229012,0 -0.539433,0.20418 -0.689828,0.45373 -0.150345,0.24955 0.03696,0.45373 0.416349,0.45373 0.379406,0 0.689827,-0.20418 0.689827,-0.45373 z m -19.911425,-0.68062 c 0,-0.37433 -0.199113,-0.68059 -0.442476,-0.68059 -0.243362,0 -0.442477,0.30626 -0.442477,0.68059 0,0.37435 0.199115,0.68062 0.442477,0.68062 0.243363,0 0.442476,-0.30627 0.442476,-0.68062 z m 3.40496,-1.25945 c 0.108987,-0.80089 0.04713,-0.86873 -0.299613,-0.32862 -0.494765,0.77068 -0.613642,2.1335 -0.144106,1.652 0.168512,-0.17279 0.368185,-0.76833 0.443715,-1.32338 z m 5.887042,0.83251 c 0,-0.47892 -0.849162,-0.68011 -1.10173,-0.26106 -0.152853,0.25363 0.03249,0.46114 0.411902,0.46114 0.379406,0 0.689828,-0.09 0.689828,-0.20008 z m -11.153009,-6.89807 c -0.128939,-0.62381 -0.240211,-0.5097 -0.4290266,0.43995 -0.164627,0.82799 -0.10295,1.12633 0.1740936,0.84222 0.235965,-0.24195 0.350683,-0.81894 0.254933,-1.28217 z M 9.2639854,181.4255 c -0.146599,-0.24324 -0.0189,-0.74824 0.283763,-1.12222 0.416827,-0.51501 0.426066,-0.80735 0.0381,-1.2052 -0.28172,-0.28889 -0.527453,-0.43337 -0.546073,-0.32108 -0.03752,0.22633 -0.261337,1.31657 -0.414501,2.01913 -0.206453,0.947 0.02315,1.63069 0.455574,1.35663 0.24733,-0.15674 0.329746,-0.48401 0.183144,-0.72726 z M 67.480491,296.98973 c 0,-0.35395 -0.11021,-0.9379 -0.2448,-1.2977 -0.13463,-0.3598 0.23849,-1.24426 0.82918,-1.96549 1.05529,-1.28846 2.63868,-6.06492 3.3924,-10.23364 0.21045,-1.16399 0.9947,-3.54628 1.74274,-5.29403 0.74806,-1.74774 1.36009,-3.47276 1.36009,-3.83337 0,-0.36061 0.39291,-2.27443 0.8731,-4.25294 0.4802,-1.97851 1.1995,-5.73286 1.59842,-8.34301 0.39894,-2.61016 1.22476,-5.97081 1.83519,-7.46815 1.42217,-3.48854 1.41314,-7.57861 -0.0285,-12.90687 -1.49279,-5.51734 -2.03762,-5.43233 -4.20433,0.65599 -1.85375,5.20891 -2.82214,7.54208 -3.03838,7.32035 -0.0942,-0.0966 0.81875,-2.90612 2.02866,-6.24349 1.20993,-3.33738 2.93799,-8.62023 3.84015,-11.73967 0.90216,-3.11943 2.02772,-6.33514 2.50122,-7.14602 0.72575,-1.2428 0.79426,-1.79504 0.43622,-3.51647 -0.45239,-2.17511 -0.3683,-2.39281 0.55748,-1.44345 0.38733,0.39717 0.44866,0.84627 0.18226,1.33442 -0.28476,0.52179 -0.18984,0.85727 0.32637,1.15349 0.44499,0.25539 0.55,0.53048 0.27015,0.70783 -0.25177,0.15966 -0.34927,0.71554 -0.21667,1.23549 0.1833,0.71883 0.33077,0.80028 0.61539,0.33986 0.28204,-0.45626 0.37598,-0.39766 0.38109,0.23771 0.005,0.69208 0.22487,0.7874 1.22359,0.53181 1.72049,-0.4403 2.95955,-1.64132 2.22283,-2.15459 -0.42357,-0.29511 -0.39491,-0.35976 0.1154,-0.26028 0.37342,0.0729 1.46414,-0.53124 2.42381,-1.34229 0.95968,-0.81105 1.50039,-1.47465 1.20158,-1.47465 -0.29883,0 -0.5433,-0.22918 -0.5433,-0.5093 0,-0.35186 0.20517,-0.33469 0.66372,0.0556 0.43553,0.37066 0.66371,0.39518 0.66371,0.0713 0,-0.27144 0.59734,-1.4594 1.32742,-2.63993 0.7301,-1.18053 1.32743,-1.94964 1.32743,-1.70916 0,0.24048 -0.49777,1.18845 -1.10617,2.10657 -0.60842,0.91813 -1.1062,1.8527 -1.1062,2.07682 0,0.22411 -0.39354,0.77269 -0.87452,1.21905 -0.48099,0.44637 -0.7489,1.02 -0.59534,1.27477 0.15888,0.2637 0.0613,0.32513 -0.22666,0.14269 -0.29067,-0.18423 -1.2462,0.45402 -2.24654,1.50053 -1.99032,2.08218 -3.61916,2.6644 -5.46035,1.95175 -1.21423,-0.46999 -1.31646,-0.41385 -1.91311,1.05049 -0.34669,0.85084 -0.63033,1.75813 -0.63033,2.01617 0,0.25803 -0.59736,2.237 -1.32744,4.39768 -0.73008,2.16068 -1.32742,3.97581 -1.32742,4.03359 0,0.0578 0.49597,0.23271 1.10215,0.38871 0.87194,0.22442 1.16082,0.66005 1.38313,2.08565 0.4522,2.8998 3.98307,7.08742 10.56777,12.53337 2.87514,2.37792 2.86607,2.37317 5.51604,2.88852 1.24625,0.24237 2.95412,0.97894 3.79526,1.63684 l 1.529359,1.19619 v 20.1374 20.13741 H 83.852121 c -13.83794,0 -16.37162,-0.0996 -16.37162,-0.64348 z m 29.6459,-36.53469 c 0,-0.23405 -0.38442,-0.39586 -0.85428,-0.35955 -0.46986,0.0364 -0.75679,0.22779 -0.63761,0.42553 0.30322,0.50311 1.49189,0.45054 1.49189,-0.066 z m 1.76992,-0.88713 c 0,-0.45995 -1.3477,-1.08649 -1.65631,-0.77003 -0.11122,0.11405 -0.0709,0.42514 0.0894,0.69131 0.353,0.5857 1.56686,0.6467 1.56686,0.0787 z m -2.6566,-1.8646 c -0.29629,-0.18776 -0.96466,-0.22482 -1.4853,-0.0823 -0.90786,0.24845 -0.90133,0.27111 0.15955,0.5535 1.27088,0.33831 2.12432,0.035 1.32569,-0.47117 z m -10.39646,-0.90636 c 0.15035,-0.24955 0.0625,-0.45374 -0.19512,-0.45374 -0.25773,0 -0.4686,0.20419 -0.4686,0.45374 0,0.24956 0.0878,0.45373 0.19513,0.45373 0.10737,0 0.31819,-0.20417 0.46859,-0.45373 z m 3.16914,-1.47465 c -0.12275,-0.31194 -0.22317,-0.0568 -0.22317,0.56717 0,0.62389 0.10051,0.87912 0.22317,0.56717 0.12276,-0.31194 0.12276,-0.8224 0,-1.13434 z m -6.62792,-2.69405 c -0.14132,-0.36197 -0.24611,-0.25444 -0.26733,0.27412 -0.0192,0.47832 0.0853,0.74631 0.23239,0.59554 0.147,-0.15074 0.16272,-0.54213 0.035,-0.86966 z m 2.21238,-0.90748 c -0.14131,-0.36195 -0.2461,-0.25445 -0.26732,0.27414 -0.0192,0.47831 0.0853,0.7463 0.23238,0.59553 0.14701,-0.15075 0.16273,-0.54212 0.0349,-0.86967 z M 9.4031284,295.02424 c 0.200422,-1.95634 0.9979226,-3.89238 0.9979226,-2.4226 0,0.39178 0.264252,0.30332 0.774334,-0.25916 0.425883,-0.46965 0.624998,-0.65562 0.442476,-0.41327 -0.721193,0.95762 -0.275841,1.25827 0.656089,0.44291 0.825013,-0.7218 0.887959,-0.73206 0.38168,-0.0621 -0.333447,0.44123 -0.628686,1.16157 -0.65609,1.60078 -0.05871,0.94108 -1.755021,3.26872 -2.3821496,3.26872 -0.255027,0 -0.343692,-0.89188 -0.214262,-2.15525 z M 20.128755,274.60609 c -0.0057,-0.66597 -0.07317,-0.68639 -0.41842,-0.12657 -0.226402,0.3671 -0.548996,0.52662 -0.716875,0.35446 -0.471018,-0.483 0.973911,-2.45908 1.999136,-2.73399 0.502733,-0.13479 0.802475,-0.06 0.666097,0.16634 -0.13638,0.22629 0.211797,0.42577 0.773724,0.44331 0.958789,0.0298 0.967217,0.0544 0.136731,0.3972 -0.826003,0.34098 -0.811265,0.38007 0.221238,0.58692 1.072858,0.21494 1.068744,0.22348 -0.136731,0.2834 -0.683607,0.0339 -1.132758,0.24458 -0.998112,0.468 0.134641,0.2234 -0.069,0.52966 -0.452552,0.6806 -1.000323,0.39362 -1.066716,0.36151 -1.074235,-0.51964 z m 39.578556,-9.5924 c 0.3157,-0.52378 2.02099,-1.5802 2.02099,-1.25198 0,0.10478 -0.52231,0.54158 -1.16068,0.9705 -0.63836,0.42891 -1.0255,0.5556 -0.86031,0.28148 z m 2.46346,-2.07535 c 0,-0.11592 0.44801,-0.45568 0.99557,-0.75488 0.90275,-0.49326 0.93896,-0.47361 0.38831,0.2109 -0.56541,0.70286 -1.38388,1.02459 -1.38388,0.54398 z m 2.21239,-1.77533 c 0,-0.0942 0.34845,-0.45154 0.77433,-0.79406 0.70178,-0.56438 0.71744,-0.54833 0.16707,0.17132 -0.57803,0.75581 -0.94138,0.99617 -0.94138,0.62274 z m 1.76989,-1.38252 c 0,-0.19292 0.54757,-0.89832 1.21683,-1.56752 0.66924,-0.66922 1.46853,-1.6189 1.77618,-2.11043 0.30767,-0.49152 0.27681,-0.28113 -0.0685,0.46754 -0.62498,1.35473 -2.92443,3.87906 -2.92443,3.21041 z m 4.04449,-6.61344 c 0,-0.37432 0.17113,-1.08896 0.38028,-1.58807 0.23969,-0.57199 0.38029,-0.65587 0.38029,-0.22686 0,0.37432 -0.17113,1.08896 -0.38029,1.58807 -0.2397,0.57199 -0.38028,0.65587 -0.38028,0.22686 z m -17.95403,-3.04313 c -0.24013,-0.64668 -0.1893,-0.69879 0.2477,-0.25402 0.30239,0.3078 0.43833,0.67391 0.30211,0.8136 -0.1363,0.13977 -0.38365,-0.11215 -0.54981,-0.55958 z m 7.86084,-0.32234 c 0.13228,-0.35367 -0.0454,-0.75562 -0.39513,-0.89322 -0.34968,-0.13755 -0.63578,-0.56286 -0.63578,-0.94502 0,-0.38217 -0.23707,-0.64382 -0.52682,-0.58143 -0.79869,0.17199 -0.94397,-1.32113 -0.15871,-1.63017 0.377,-0.14834 0.68545,-0.0599 0.68545,0.19656 0,0.25645 0.2204,0.32658 0.48978,0.15588 0.34055,-0.2158 0.39725,0.12177 0.18608,1.10758 -0.23623,1.10296 -0.15419,1.41797 0.36906,1.41797 0.37001,0 0.79582,-0.20417 0.94622,-0.45374 0.15034,-0.24956 0.47209,-0.45373 0.71484,-0.45373 0.24276,0 0.0884,0.61254 -0.34275,1.3612 -0.79227,1.37536 -1.77685,1.90607 -1.33233,0.71815 z m 2.50889,-0.71815 c 0,-0.24956 0.21087,-0.45373 0.4686,-0.45373 0.25772,0 0.34554,0.20417 0.19512,0.45373 -0.15033,0.24955 -0.36128,0.45373 -0.46859,0.45373 -0.10736,0 -0.19513,-0.20418 -0.19513,-0.45373 z m -6.15972,-5.94168 c -0.0192,-0.39805 0.41307,-1.11268 0.96063,-1.58807 0.98709,-0.85701 0.98946,-0.85664 0.27898,0.043 -0.39412,0.49911 -0.82642,1.21374 -0.96064,1.58808 -0.20714,0.57767 -0.24934,0.57114 -0.27897,-0.043 z m -7.96457,-5.21267 c 0.0213,-0.52857 0.1261,-0.63609 0.26733,-0.27412 0.12776,0.32752 0.11204,0.71889 -0.0349,0.86966 -0.147,0.15073 -0.2516,-0.1173 -0.23239,-0.59554 z m 6.75489,-14.50131 c -0.14415,-0.38511 -0.14265,-0.82256 0.003,-0.97213 0.31514,-0.32316 1.61402,0.70218 1.61402,1.27411 0,0.68474 -1.34173,0.43419 -1.61722,-0.30198 z m 30.62477,-2.66577 c 0.92679,-0.69493 1.34679,-0.61856 0.8778,0.15967 -0.16038,0.26615 -0.61665,0.48393 -1.01384,0.48393 -0.60396,0 -0.5817,-0.1053 0.13596,-0.64353 z m -0.78753,-0.97029 c 0.90556,-0.65041 1.46379,-1.92036 0.60485,-1.37599 -0.2082,0.13188 -0.28141,-0.28113 -0.16271,-0.91795 0.11873,-0.63684 0.48704,-1.26461 0.81848,-1.39504 0.33146,-0.1305 0.47309,-0.45208 0.31476,-0.71481 -0.18271,-0.30315 0.0607,-0.38418 0.66625,-0.2218 0.56807,0.15229 0.95958,0.0436 0.9676,-0.26883 0.007,-0.28856 0.21178,-0.17584 0.45419,0.25051 0.24239,0.42635 0.73244,0.6604 1.08901,0.52008 0.80771,-0.31781 1.39487,1.07755 0.73719,1.75196 -0.34302,0.35176 -0.76681,0.30409 -1.49678,-0.1684 -1.44048,-0.93231 -2.48436,-0.59851 -2.23931,0.71606 0.19132,1.02623 -1.17265,2.53052 -2.29447,2.53052 -0.24336,0 5e-5,-0.31786 0.54092,-0.70635 z m -30.99091,-0.96872 c -0.42887,-0.11472 -0.66601,-0.39729 -0.52699,-0.62796 0.13897,-0.23067 -0.0577,-0.44492 -0.43705,-0.47611 -1.16593,-0.0959 -1.29716,-0.15897 -3.21729,-1.54613 -1.02505,-0.74053 -1.87127,-1.70376 -1.88051,-2.14048 -0.01,-0.43672 -0.31547,-0.79404 -0.68051,-0.79404 -0.36504,0 -0.66372,-0.20419 -0.66372,-0.45374 0,-0.24956 -0.31042,-0.45373 -0.68983,-0.45373 -0.37941,0 -0.56676,-0.20418 -0.41635,-0.45373 0.15035,-0.24956 -0.16088,-0.45375 -0.69179,-0.45375 -0.78408,0 -0.86728,-0.12108 -0.44331,-0.64491 0.4231,-0.52276 0.3705,-0.605 -0.27767,-0.43425 -0.48717,0.12827 -1.01719,-0.15159 -1.35646,-0.7163 -0.30628,-0.50983 -0.36508,-0.92696 -0.13061,-0.92696 0.2344,0 0.55666,-0.71316 0.71611,-1.5848 0.24583,-1.34371 0.0884,-1.82013 -1.03464,-3.13178 -1.15607,-1.3502 -1.28609,-1.7691 -1.02211,-3.29287 0.1664,-0.96023 0.26649,-2.39987 0.22256,-3.19921 -0.051,-0.92696 0.22148,-1.73304 0.75224,-2.22558 0.45767,-0.42473 0.83212,-1.00475 0.83212,-1.28895 0,-0.35225 1.48071,-0.52416 4.65126,-0.54006 2.55822,-0.012 4.76524,-0.14011 4.90451,-0.28301 0.13931,-0.14285 -0.90845,-0.41756 -2.32828,-0.61057 -1.41981,-0.19301 -2.23378,-0.42886 -1.80878,-0.5241 0.64211,-0.14389 0.68796,-0.33559 0.27129,-1.13397 l -0.50142,-0.96074 -0.82439,1.04397 -0.82439,1.04397 v -1.23753 c 0,-1.00038 -0.16405,-1.19351 -0.85638,-1.00787 -0.49511,0.13273 -0.95589,-0.0364 -1.09229,-0.40083 -0.12978,-0.34675 -0.54086,-0.63045 -0.91352,-0.63045 -0.37268,0 -0.67761,-0.20419 -0.67761,-0.45375 0,-0.24955 0.38468,-0.45373 0.85483,-0.45373 0.47015,0 1.30483,-0.64808 1.85485,-1.44016 0.56923,-0.81976 1.07728,-1.20253 1.17934,-0.88853 0.13697,0.42139 0.32587,0.42693 0.80001,0.0233 0.47304,-0.40257 0.62069,-0.4007 0.62069,0.009 0,0.29483 0.19911,0.40988 0.44247,0.25565 0.24336,-0.15417 0.44247,0.0103 0.44247,0.36456 0,0.75517 6.34328,1.44683 8.73892,0.95287 0.96167,-0.1983 1.43804,-0.12228 1.43804,0.22945 0,0.31585 0.48611,0.45256 1.21682,0.34219 0.80187,-0.12107 1.69711,0.18304 2.62533,0.89195 0.77468,0.59165 1.77026,1.07886 2.21238,1.08268 0.44212,0.003 1.10061,0.19935 1.46329,0.43448 0.44316,0.28731 0.9801,0.21206 1.63718,-0.22944 0.88409,-0.59399 1.03811,-0.5686 1.60767,0.26524 0.34645,0.50722 0.8044,0.88943 1.01768,0.84936 0.91346,-0.17159 0.97735,0.14285 0.41693,2.05244 -0.32571,1.1098 -0.48692,2.12578 -0.35825,2.25771 0.1286,0.13188 -0.015,0.54682 -0.31805,0.92194 -0.43209,0.53388 -0.75109,0.57277 -1.46856,0.17903 -0.89784,-0.49274 -0.89235,-0.51601 0.26772,-1.13929 0.65132,-0.34997 1.18425,-0.98148 1.18425,-1.40337 0,-0.6028 -0.15419,-0.54143 -0.7197,0.2866 -0.55779,0.8166 -0.99707,0.99677 -1.95255,0.80081 -0.79397,-0.16292 -1.4234,-0.0175 -1.76811,0.4085 -0.58978,0.72872 -1.5201,0.92026 -1.10224,0.22694 0.42739,-0.70915 -2.18796,-1.89274 -2.79864,-1.26653 -0.31684,0.32491 -0.50829,0.34463 -0.50829,0.0523 0,-0.25788 -0.2489,-0.49674 -0.55309,-0.53081 -1.50964,-0.16909 -5.24741,-0.97385 -5.62002,-1.20999 -0.61076,-0.38707 -2.71626,0.23378 -2.42601,0.71536 0.13429,0.22293 1.37745,0.41258 2.76243,0.42142 1.38496,0.009 3.0159,0.30787 3.6243,0.66451 0.60842,0.35665 1.70354,0.65767 2.43363,0.66893 0.83366,0.0137 2.06431,0.62111 3.30848,1.63521 1.08959,0.8881 2.05197,1.39657 2.13863,1.12993 0.27504,-0.84609 0.74624,-0.52325 0.78249,0.53614 0.0547,1.59911 0.35284,2.35466 1.07127,2.71495 0.43842,0.21987 0.28986,0.29688 -0.43765,0.22687 -0.84236,-0.0811 -1.09997,0.10735 -1.09551,0.80149 0.003,0.5793 0.28199,0.88469 0.76949,0.84446 0.42001,-0.0346 0.76671,0.16943 0.77043,0.45373 0.003,0.2952 0.17725,0.24056 0.40438,-0.12742 0.25667,-0.41582 0.36158,0.27036 0.29594,1.93559 -0.0559,1.41887 -0.33747,2.82153 -0.62563,3.11704 -0.28816,0.2955 -0.52395,0.91684 -0.52395,1.38078 0,0.46392 -0.1829,0.72759 -0.40647,0.5859 -0.22355,-0.14165 -0.53576,0.34605 -0.69378,1.08388 -0.45899,2.14291 -2.73043,4.11123 -4.74436,4.11123 -1.62414,0 -1.68224,0.0516 -1.40242,1.24779 0.16054,0.68627 0.14599,1.10991 -0.0321,0.94144 -0.17824,-0.16857 -1.21834,0.0868 -2.3113,0.56718 -1.88338,0.82783 -3.83422,1.02386 -5.5697,0.55964 z m 3.5398,-2.72242 c -0.42886,-0.11472 -0.64509,-0.432 -0.4805,-0.70507 0.18532,-0.30749 0.0458,-0.39677 -0.36657,-0.23451 -0.36618,0.14406 -0.94642,0.0798 -1.28939,-0.14285 -0.50839,-0.33002 -0.48537,-0.40608 0.12459,-0.41174 0.41151,-0.003 0.87128,-0.21115 1.02169,-0.4607 0.15385,-0.25518 -0.19944,-0.45373 -0.80723,-0.45373 -0.63021,0 -1.19456,0.33099 -1.35383,0.79404 -0.15018,0.43671 -0.38916,1.04927 -0.53096,1.36121 -0.19049,0.41905 0.35847,0.55343 2.10205,0.51453 1.29793,-0.029 2.00899,-0.14645 1.58011,-0.26121 z m -8.29101,-5.13099 c 0,-0.24955 -0.31042,-0.45373 -0.68983,-0.45373 -0.37941,0 -0.56677,0.20418 -0.41635,0.45373 0.15034,0.24956 0.46082,0.45374 0.68983,0.45374 0.22899,0 0.41635,-0.20418 0.41635,-0.45374 z m 5.53096,-1.3612 c -0.15034,-0.24956 -0.0625,-0.45373 0.19511,-0.45373 0.25773,0 0.4686,-0.22918 0.4686,-0.50929 0,-0.35189 -0.20514,-0.33471 -0.66371,0.0556 -0.77073,0.65592 -0.87182,1.3612 -0.19513,1.3612 0.25773,0 0.34553,-0.20417 0.19513,-0.45372 z m 12.97726,-3.13197 c -0.68557,-1.12572 -1.69413,-1.25818 -1.69413,-0.22251 0,0.44279 0.24628,0.63225 0.62711,0.48239 0.3449,-0.13566 0.74782,0.0758 0.89536,0.47014 0.1475,0.39429 0.37695,0.60546 0.50976,0.46927 0.13279,-0.13617 -0.0194,-0.67588 -0.3381,-1.19929 z m -11.42859,0.40955 c 0,-0.24955 -0.31043,-0.45373 -0.68983,-0.45373 -0.37941,0 -0.56678,0.20418 -0.41636,0.45373 0.15033,0.24955 0.46083,0.45373 0.68982,0.45373 0.229,0 0.41637,-0.20418 0.41637,-0.45373 z m 0,-2.09066 c 0,-0.37552 -0.85917,-0.58789 -1.05616,-0.26104 -0.12777,0.21203 0.0575,0.38551 0.4119,0.38551 0.35434,0 0.64426,-0.0561 0.64426,-0.1245 z m 2.40396,-1.99296 0.74663,-1.58808 -0.90175,1.13435 c -0.49595,0.62388 -0.90616,1.42359 -0.91159,1.77712 -0.0134,0.82503 0.1537,0.61878 1.06671,-1.32339 z m -1.76262,-1.5054 c -0.71779,-0.23728 -1.53624,-0.61808 -1.81876,-0.84624 -0.31129,-0.25139 -0.61396,-0.24851 -0.76815,0.007 -0.34625,0.57453 2.363,1.87194 3.21166,1.538 0.48884,-0.19236 0.31301,-0.38911 -0.62475,-0.69908 z m -2.16991,-2.16229 c 0.0117,-0.35355 0.27062,-0.58812 0.57682,-0.52127 0.30617,0.0669 0.84493,-0.17406 1.19725,-0.53534 0.46535,-0.47718 0.99722,-0.55198 1.94437,-0.27341 0.93837,0.27596 1.4454,0.20849 1.80895,-0.24069 0.70858,-0.87551 -1.92214,-2.47118 -4.07785,-2.47343 -2.46851,-0.003 -4.03767,2.12878 -3.01287,4.09237 0.53671,1.02835 1.53061,0.99766 1.56333,-0.0482 z m 16.43255,-7.30707 c -0.14132,-0.36196 -0.24611,-0.25443 -0.26733,0.27413 -0.0192,0.47833 0.0853,0.74632 0.23239,0.59554 0.147,-0.15073 0.16272,-0.54213 0.0349,-0.86967 z m 12.08707,26.68421 c 0,-0.0941 0.34844,-0.45154 0.77433,-0.79404 0.7018,-0.56439 0.71745,-0.54834 0.16706,0.17132 -0.57805,0.75581 -0.94139,0.99616 -0.94139,0.62272 z m -9.73448,-2.29746 c 0,-0.81325 0.73106,-1.3122 1.34892,-0.92063 0.31716,0.20102 0.30002,0.4966 -0.0542,0.93424 -0.66856,0.82608 -1.29474,0.81949 -1.29474,-0.0137 z m 2.49485,-2.29546 c 0.14014,-0.37433 0.45686,-0.6806 0.70399,-0.6806 0.259,0 0.21599,0.28831 -0.10151,0.6806 -0.30297,0.37433 -0.61976,0.68062 -0.70401,0.68062 -0.0843,0 -0.0386,-0.30629 0.10151,-0.68062 z m 7.00019,-0.25705 c -0.16037,-0.26615 -0.19677,-0.58123 -0.0807,-0.70018 0.11589,-0.11884 0.32879,0.0988 0.47289,0.48393 0.2992,0.79953 0.0442,0.94016 -0.39212,0.21625 z m 10.00884,-0.2345 c 0.0213,-0.52858 0.1261,-0.63609 0.26733,-0.27412 0.12777,0.32753 0.11204,0.71889 -0.0349,0.86966 -0.14701,0.15074 -0.25161,-0.1173 -0.23241,-0.59554 z m -9.32693,-0.62854 c 0,-0.24174 0.29867,-0.32198 0.66372,-0.17833 0.36503,0.1437 0.6637,0.34141 0.6637,0.43949 0,0.0981 -0.29867,0.17833 -0.6637,0.17833 -0.36505,0 -0.66372,-0.19778 -0.66372,-0.43949 z m 2.09345,-1.33909 c -0.19246,-0.75472 -0.1348,-0.93187 0.19346,-0.59516 0.25713,0.26367 0.38045,0.74722 0.27404,1.07456 -0.11038,0.33983 -0.31104,0.13411 -0.4675,-0.4794 z m 7.71089,-0.49011 c 0,-0.62388 0.10051,-0.87911 0.22319,-0.56716 0.12275,0.31193 0.12275,0.82239 0,1.13434 -0.12275,0.31194 -0.22319,0.0568 -0.22319,-0.56718 z m -5.37957,-0.74639 c 0,-0.23833 0.23892,-0.67833 0.53097,-0.97781 0.41297,-0.42348 0.41297,-0.54448 0,-0.54448 -0.29205,0 -0.53097,-0.24501 -0.53097,-0.54448 0,-0.42348 0.1179,-0.42348 0.53097,0 0.64208,0.65843 1.4006,0.72606 1.01769,0.0907 -0.15034,-0.24955 -0.0134,-0.45688 0.30574,-0.46068 0.46316,-0.005 0.45941,-0.0849 -0.0187,-0.39549 -0.42413,-0.27561 -0.19904,-0.44859 0.77433,-0.59508 0.75475,-0.11352 1.37227,-0.0377 1.37227,0.16858 0,0.20634 -0.31044,0.37515 -0.68985,0.37515 -0.3794,0 -0.56675,0.20419 -0.41635,0.45375 0.15035,0.24955 0.0134,0.45685 -0.30573,0.46067 -0.42089,0.005 -0.39779,0.12725 0.0844,0.44679 0.55499,0.3678 0.52445,0.44099 -0.18641,0.44681 -0.46757,0.003 -1.21423,0.34484 -1.65928,0.75787 -0.44505,0.41299 -0.80917,0.55593 -0.80917,0.31761 z m -14.60172,-0.61481 c 0,-0.24956 0.21087,-0.45373 0.4686,-0.45373 0.25772,0 0.34552,0.20417 0.1951,0.45373 -0.15033,0.24955 -0.36126,0.45373 -0.46858,0.45373 -0.10737,0 -0.19512,-0.20418 -0.19512,-0.45373 z m 21.74866,-3.17615 c 0,-0.37433 0.26838,-1.39525 0.5964,-2.26869 0.32799,-0.87343 0.59637,-1.28181 0.59637,-0.90747 0,0.37432 -0.26838,1.39524 -0.59637,2.26869 -0.32802,0.87343 -0.5964,1.2818 -0.5964,0.90747 z m -24.846,-0.87793 c 0,-0.25298 0.64713,-0.78138 1.43806,-1.1742 1.20928,-0.60061 1.29727,-0.60493 0.55309,-0.0271 -0.48673,0.37791 -1.13385,0.90629 -1.43806,1.17419 -0.35633,0.31382 -0.55309,0.32346 -0.55309,0.0271 z m 18.38882,-0.27085 c -0.82574,-0.64045 -0.82794,-0.6894 -0.0564,-1.26792 0.56075,-0.42047 0.71055,-0.89886 0.49722,-1.58808 -0.33382,-1.07853 -1.1151,-1.27445 -1.89465,-0.47506 -0.64557,0.66199 -2.77575,0.12142 -2.77575,-0.70429 0,-0.3892 0.31262,-0.54566 0.81898,-0.40986 0.91019,0.24406 2.41105,-1.03075 2.15193,-1.82784 -0.19788,-0.60881 0.73264,-1.6529 1.47314,-1.6529 0.34489,0 0.26366,0.40894 -0.23679,1.19217 -0.747,1.16909 -0.73727,1.21271 0.50221,2.25236 0.69517,0.5831 1.61242,1.06755 2.03829,1.07651 0.84302,0.0177 1.04026,0.7017 0.33185,1.15066 -0.24336,0.15417 -0.44247,0.88091 -0.44247,1.61486 0,1.51186 -0.95551,1.76562 -2.40757,0.63939 z M 4.0427934,202.23516 c -0.368401,-1.40967 -0.344044,-2.60911 0.05296,-2.6083 0.182522,3.6e-4 0.386447,0.81708 0.453166,1.81493 0.134189,2.00684 -0.09509,2.36624 -0.506135,0.79337 z m 66.5350276,-0.70328 c 0,-0.88854 0.80089,-1.90569 1.50049,-1.90569 0.24121,0 0.052,0.30626 -0.42034,0.68059 -0.85022,0.67374 -0.85022,0.68749 0,1.36121 0.84033,0.66589 0.83793,0.68062 -0.11054,0.68062 -0.63863,0 -0.96953,-0.27876 -0.96953,-0.81673 z m 24.55437,-1.11166 c 0.12343,-0.68629 0.35098,-1.7808 0.50579,-2.43231 0.24532,-1.03228 0.16762,-1.14745 -0.60445,-0.89617 -0.7549,0.24568 -0.85479,0.12125 -0.67533,-0.84153 0.11589,-0.62142 0.0343,-1.69846 -0.18122,-2.39341 -0.59539,-1.91994 -0.21628,-3.60878 0.99238,-4.42088 0.95493,-0.64161 1.11912,-0.64797 1.34215,-0.052 0.1398,0.3735 -0.0426,1.28895 -0.40521,2.03437 -0.55987,1.15085 -0.56817,1.47854 -0.0549,2.17258 0.8737,1.18146 0.74654,4.16311 -0.26708,6.26216 -0.70311,1.45606 -0.83204,1.56821 -0.6521,0.56717 z m -21.89952,0.29843 c 0,-0.51605 1.81664,-2.63163 2.86277,-3.33385 0.58003,-0.38935 1.86566,-1.38865 2.85698,-2.22067 0.99128,-0.83204 1.80236,-1.2536 1.80236,-0.9368 0,0.71839 -5.32962,5.84095 -6.08406,5.84767 -0.30419,0.003 -0.55309,0.2091 -0.55309,0.45865 0,0.24955 -0.19911,0.45374 -0.44247,0.45374 -0.24336,0 -0.44249,-0.12089 -0.44249,-0.26874 z m 24.13289,-0.41187 c 0.81047,-2.48903 0.99036,-3.48622 1.28642,-7.13084 0.31071,-3.82497 0.28426,-3.99255 -0.87636,-5.55291 -1.41361,-1.90052 -2.95852,-2.10754 -4.90369,-0.65712 l -1.27649,0.95182 1.24149,-1.17869 c 1.70285,-1.61672 4.10398,-1.63885 4.81245,-0.0442 0.27722,0.62389 0.6517,1.13435 0.83218,1.13435 0.41112,0 1.35752,2.71314 1.09712,3.1452 -0.10552,0.1752 -0.39655,1.99137 -0.64655,4.03592 -0.25,2.04455 -0.77123,4.27688 -1.1583,4.96073 -0.38707,0.68385 -0.57079,0.83499 -0.40827,0.33589 z m -7.09755,-0.68059 c -0.15569,-0.25837 0.22536,-0.45375 0.88496,-0.45375 0.65961,0 1.04068,0.19538 0.88496,0.45375 -0.15034,0.24955 -0.54865,0.45373 -0.88496,0.45373 -0.33631,0 -0.73454,-0.20418 -0.88496,-0.45373 z m -18.09464,-1.43022 c 0.46093,-0.66184 0.92657,-1.11556 1.03472,-1.00829 0.1082,0.10734 -0.26897,0.64876 -0.83806,1.20333 l -1.03474,1.0083 z m -2.48049,0.0587 c 0,-0.2595 0.30725,-0.59272 0.68278,-0.7405 1.03778,-0.40837 1.15962,0.0324 0.18203,0.6585 -0.54736,0.35054 -0.86481,0.38063 -0.86481,0.082 z m 6.20873,-6.4352 c -0.0134,-0.30912 1.98766,-3.49244 2.50116,-3.97849 0.4282,-0.40533 -1.07976,2.4298 -1.80372,3.39118 -0.37586,0.49912 -0.6897,0.76341 -0.69744,0.58731 z M 9.1842424,191.13222 c -0.304202,-0.11146 -0.553097,-0.49181 -0.553097,-0.84534 0,-0.35355 -0.2323,-0.6428 -0.516221,-0.6428 -0.283922,0 -0.381377,-0.13822 -0.216566,-0.30727 0.16481,-0.16893 0.715804,0.15073 1.224429,0.7106 0.9696816,1.0673 0.9899356,1.42487 0.06145,1.08481 z m 72.7379486,-1.71501 c 0.14015,-0.37432 0.45689,-0.68059 0.70401,-0.68059 0.25898,0 0.21599,0.28829 -0.10151,0.68059 -0.30295,0.37434 -0.61975,0.68062 -0.70399,0.68062 -0.0843,0 -0.0386,-0.30628 0.10151,-0.68062 z m 5.46973,0.18057 c -0.53318,-0.39054 -0.46784,-0.44213 0.33225,-0.26229 1.07757,0.24219 2.74904,-1.44829 2.78364,-2.81532 0.0178,-0.70286 1.69466,-4.21 1.73281,-3.6241 0.01,0.15674 -0.29544,1.05548 -0.6792,1.99731 -0.38377,0.94184 -0.60151,2.08976 -0.4839,2.55095 0.11756,0.46121 0.0332,0.83854 -0.18721,0.83854 -0.22058,0 -0.79928,0.40837 -1.286,0.90748 -1.0089,1.03457 -1.28642,1.08568 -2.21239,0.40743 z m -0.96791,-1.17112 c 0.31941,-0.13101 0.70103,-0.11489 0.84807,0.0359 0.147,0.15074 -0.11439,0.25801 -0.58074,0.23832 -0.51547,-0.0218 -0.62031,-0.1293 -0.26733,-0.27413 z m -6.11171,-2.68787 c 0,-0.47256 -0.24165,-0.63407 -0.68669,-0.45895 -0.39378,0.15504 -0.57138,0.0789 -0.41637,-0.17831 0.47866,-0.79419 1.54554,-0.47738 1.54554,0.45892 0,0.49911 -0.0995,0.90748 -0.22123,0.90748 -0.12176,0 -0.22125,-0.32811 -0.22125,-0.72914 z m 3.76419,-0.17314 c -0.15503,-0.2572 0.0226,-0.33326 0.41636,-0.17831 0.76656,0.30163 0.9068,0.62686 0.27033,0.62686 -0.22901,0 -0.53802,-0.20184 -0.68669,-0.44855 z m 7.11798,-6.25927 c -0.77608,-2.95871 -1.5274,-9.45042 -1.80287,-15.57769 -0.0742,-1.65094 -0.35541,-3.4241 -0.62484,-3.94036 -0.26944,-0.51626 -0.48988,-1.34586 -0.48988,-1.84354 0,-0.49769 -0.25363,-1.1747 -0.56363,-1.50448 -0.5925,-0.63028 -0.78305,-3.16088 -0.2107,-2.79814 0.18252,0.11575 0.33184,0.54108 0.33184,0.94536 0,0.71089 0.51737,2.57485 1.46528,5.27893 0.25127,0.71682 0.48998,2.35027 0.53049,3.6299 0.1403,4.43667 1.11462,12.77672 1.82442,15.61821 0.39233,1.57066 0.62917,2.94203 0.5263,3.04752 -0.10285,0.10546 -0.54676,-1.17958 -0.98641,-2.85571 z m -8.13414,1.47259 c -0.46921,-0.54553 -0.45798,-0.66335 0.0632,-0.66335 0.34859,0 0.74842,0.30628 0.88851,0.68061 0.32217,0.86091 -0.20471,0.85135 -0.9518,-0.0173 z M 18.679762,176.1861 c -0.129624,-0.21507 0.04535,-0.78512 0.388814,-1.26679 0.495765,-0.69524 0.624477,-0.72986 0.624477,-0.16789 0,0.52921 0.35775,0.6651 1.417804,0.53853 0.931299,-0.11112 1.268176,-0.0154 0.981746,0.27787 -0.616161,0.63184 -3.130176,1.08732 -3.412841,0.61833 z m 0.414366,-4.80226 c -0.3282,-1.28697 0.650828,-2.33463 2.259456,-2.41782 0.867581,-0.0449 1.178344,-0.27646 1.085549,-0.80897 -0.07751,-0.44483 0.164927,-0.74609 0.600436,-0.74609 0.4928,0 0.640586,0.24014 0.454236,0.73812 -0.15185,0.40595 -0.04933,1.0185 0.228074,1.3612 0.37949,0.4689 0.374072,0.6231 -0.02191,0.6231 -0.289401,0 -1.178803,0.51044 -1.976464,1.13434 -1.788164,1.3986 -2.296617,1.42106 -2.629399,0.1161 z m 1.490558,-0.79673 c 0.01539,0.51965 0.131279,0.48477 0.489809,-0.14748 0.25827,-0.45543 0.368826,-0.93139 0.245681,-1.05767 -0.404281,-0.41456 -2.101442,0.78522 -1.805444,1.27635 0.190634,0.3163 0.418359,0.26996 0.66933,-0.13616 0.310432,-0.50238 0.384113,-0.49043 0.400624,0.065 z m 5.303039,-0.47565 c 0,-0.26161 -0.364138,-1.24848 -0.809168,-2.19306 -0.619271,-1.31437 -0.671197,-1.71741 -0.221251,-1.71741 0.569318,0 0.755568,0.43727 0.634523,1.48974 -0.03211,0.27866 0.281256,0.78912 0.696217,1.13435 0.414977,0.34522 0.61892,0.39561 0.453191,0.11198 -0.165731,-0.28366 0.04498,-0.79412 0.468158,-1.13433 0.696316,-0.55978 0.711735,-0.54309 0.162218,0.17546 -0.402302,0.52603 -0.438374,0.79403 -0.106864,0.79403 0.354806,0 0.339604,0.26405 -0.05218,0.90748 -0.596127,0.97885 -1.22473,1.20049 -1.22473,0.43181 z m 3.104102,-0.77212 c 0.0033,-0.45315 0.148504,-0.59924 0.337011,-0.3403 0.181618,0.24955 0.510436,0.60687 0.730685,0.79403 0.220248,0.18717 0.06856,0.34031 -0.337013,0.34031 -0.409944,0 -0.734447,-0.35265 -0.730683,-0.79404 z m -0.87817,-0.3403 c 0,-0.24956 0.193007,-0.76002 0.428925,-1.13435 0.235902,-0.37433 0.428925,-0.47642 0.428925,-0.22686 0,0.24955 -0.193023,0.76001 -0.428925,1.13434 -0.235918,0.37433 -0.428925,0.47642 -0.428925,0.22687 z m -8.602338,-1.0688 c -0.128671,-0.21351 0.257799,-0.2918 0.858839,-0.17396 0.60104,0.11781 1.0928,0.29249 1.0928,0.38818 0,0.35108 -1.725056,0.16172 -1.951639,-0.21422 z m 66.995652,-15.34195 c 0,-0.70337 -5.82847,-6.72673 -7.14403,-7.38289 -0.64382,-0.32113 -1.62696,-1.22437 -2.18474,-2.00719 l -1.01416,-1.42334 1.87084,1.58807 c 5.70508,4.84278 9.35753,8.77174 8.7416,9.40334 -0.14818,0.15194 -0.26951,0.0719 -0.26951,-0.17799 z m -14.6257,-12.30862 c -1.08196,-0.69757 -2.62066,-1.54179 -3.4194,-1.87602 -0.79873,-0.33422 -1.37447,-0.68742 -1.27942,-0.78488 0.22407,-0.22978 3.56488,1.37513 5.82899,2.80026 0.97346,0.61272 1.56001,1.1174 1.30344,1.12149 -0.25655,0.003 -1.35169,-0.56327 -2.43361,-1.26085 z m -6.72378,-3.1158 c 0.30421,-0.12587 0.802,-0.12587 1.10619,0 0.3042,0.12588 0.0554,0.22886 -0.55309,0.22886 -0.6084,0 -0.8573,-0.10307 -0.5531,-0.22886 z"
       id="path296"
       inkscape:connector-curvature="0" />
  </g>
</svg>
